<mxfile host="app.diagrams.net" agent="Mozilla/5.0 (Macintosh; Intel Mac OS X 10_15_7) AppleWebKit/605.1.15 (KHTML, like Gecko) Version/18.3 Safari/605.1.15" version="26.0.15">
  <diagram id="6a731a19-8d31-9384-78a2-239565b7b9f0" name="Page-1">
    <mxGraphModel dx="2485" dy="1810" grid="1" gridSize="10" guides="1" tooltips="1" connect="1" arrows="1" fold="1" page="1" pageScale="1" pageWidth="1169" pageHeight="827" background="#CCFFCC" math="0" shadow="0">
      <root>
        <mxCell id="0" />
        <mxCell id="1" parent="0" />
        <mxCell id="XaQK2IAKRGdh097yGWWp-2105" value="" style="edgeStyle=orthogonalEdgeStyle;rounded=0;orthogonalLoop=1;jettySize=auto;html=1;strokeColor=#006658;fontColor=default;labelBackgroundColor=none;" edge="1" parent="1" source="XaQK2IAKRGdh097yGWWp-2085" target="XaQK2IAKRGdh097yGWWp-2100">
          <mxGeometry relative="1" as="geometry">
            <mxPoint x="160" y="478" as="targetPoint" />
          </mxGeometry>
        </mxCell>
        <mxCell id="XaQK2IAKRGdh097yGWWp-2085" value="Service Principal" style="image;sketch=0;aspect=fixed;html=1;points=[];align=center;fontSize=12;image=img/lib/mscae/ResourceGroup.svg;strokeColor=#006658;fontColor=#5C5C5C;fillColor=#21C0A5;labelBackgroundColor=none;" vertex="1" parent="1">
          <mxGeometry x="65" y="440" width="75" height="60" as="geometry" />
        </mxCell>
        <mxCell id="XaQK2IAKRGdh097yGWWp-2102" value="" style="edgeStyle=orthogonalEdgeStyle;rounded=0;orthogonalLoop=1;jettySize=auto;html=1;strokeColor=#006658;fontColor=default;labelBackgroundColor=none;" edge="1" parent="1" source="XaQK2IAKRGdh097yGWWp-2086" target="XaQK2IAKRGdh097yGWWp-2093">
          <mxGeometry relative="1" as="geometry" />
        </mxCell>
        <mxCell id="XaQK2IAKRGdh097yGWWp-2086" value="AZ-RG-CS-MW-ALL-PROD" style="image;aspect=fixed;html=1;points=[];align=center;fontSize=12;image=img/lib/azure2/identity/Enterprise_Applications.svg;strokeColor=#006658;fontColor=#5C5C5C;fillColor=#21C0A5;labelBackgroundColor=none;" vertex="1" parent="1">
          <mxGeometry x="70.5" y="140" width="64" height="64" as="geometry" />
        </mxCell>
        <mxCell id="XaQK2IAKRGdh097yGWWp-2088" value="" style="edgeStyle=orthogonalEdgeStyle;rounded=0;orthogonalLoop=1;jettySize=auto;html=1;strokeColor=#006658;fontColor=default;labelBackgroundColor=none;" edge="1" parent="1" source="XaQK2IAKRGdh097yGWWp-2087" target="XaQK2IAKRGdh097yGWWp-2086">
          <mxGeometry relative="1" as="geometry" />
        </mxCell>
        <mxCell id="XaQK2IAKRGdh097yGWWp-2122" value="" style="edgeStyle=orthogonalEdgeStyle;rounded=0;orthogonalLoop=1;jettySize=auto;html=1;strokeColor=#006658;fontColor=default;labelBackgroundColor=none;" edge="1" parent="1" source="XaQK2IAKRGdh097yGWWp-2087" target="XaQK2IAKRGdh097yGWWp-2086">
          <mxGeometry relative="1" as="geometry" />
        </mxCell>
        <mxCell id="XaQK2IAKRGdh097yGWWp-2124" value="" style="edgeStyle=orthogonalEdgeStyle;rounded=0;orthogonalLoop=1;jettySize=auto;html=1;strokeColor=#006658;fontColor=default;labelBackgroundColor=none;" edge="1" parent="1" source="XaQK2IAKRGdh097yGWWp-2087" target="XaQK2IAKRGdh097yGWWp-2086">
          <mxGeometry relative="1" as="geometry" />
        </mxCell>
        <mxCell id="XaQK2IAKRGdh097yGWWp-2125" value="" style="edgeStyle=orthogonalEdgeStyle;rounded=0;orthogonalLoop=1;jettySize=auto;html=1;strokeColor=#006658;fontColor=default;labelBackgroundColor=none;" edge="1" parent="1" source="XaQK2IAKRGdh097yGWWp-2087" target="XaQK2IAKRGdh097yGWWp-2086">
          <mxGeometry relative="1" as="geometry" />
        </mxCell>
        <mxCell id="XaQK2IAKRGdh097yGWWp-2126" value="" style="edgeStyle=orthogonalEdgeStyle;rounded=0;orthogonalLoop=1;jettySize=auto;html=1;strokeColor=#006658;fontColor=default;labelBackgroundColor=none;" edge="1" parent="1" source="XaQK2IAKRGdh097yGWWp-2087" target="XaQK2IAKRGdh097yGWWp-2086">
          <mxGeometry relative="1" as="geometry" />
        </mxCell>
        <mxCell id="XaQK2IAKRGdh097yGWWp-2087" value="Azure" style="shape=image;verticalLabelPosition=bottom;labelBackgroundColor=none;verticalAlign=top;aspect=fixed;imageAspect=0;image=data:image/svg+xml,PHN2ZyB4bWxuczpkYz0iaHR0cDovL3B1cmwub3JnL2RjL2VsZW1lbnRzLzEuMS8iIHhtbG5zOmNjPSJodHRwOi8vY3JlYXRpdmVjb21tb25zLm9yZy9ucyMiIHhtbG5zOnJkZj0iaHR0cDovL3d3dy53My5vcmcvMTk5OS8wMi8yMi1yZGYtc3ludGF4LW5zIyIgeG1sbnM6c3ZnPSJodHRwOi8vd3d3LnczLm9yZy8yMDAwL3N2ZyIgeG1sbnM9Imh0dHA6Ly93d3cudzMub3JnLzIwMDAvc3ZnIiB4bWxuczpzb2RpcG9kaT0iaHR0cDovL3NvZGlwb2RpLnNvdXJjZWZvcmdlLm5ldC9EVEQvc29kaXBvZGktMC5kdGQiIHhtbG5zOmlua3NjYXBlPSJodHRwOi8vd3d3Lmlua3NjYXBlLm9yZy9uYW1lc3BhY2VzL2lua3NjYXBlIiB2ZXJzaW9uPSIxLjEiIGlkPSJzdmc1MDMyOSIgaW5rc2NhcGU6dmVyc2lvbj0iMC45Mi4zICgyNDA1NTQ2LCAyMDE4LTAzLTExKSIgc29kaXBvZGk6ZG9jbmFtZT0iYXp1cmUuc3ZnIiB4PSIwcHgiIHk9IjBweCIgdmlld0JveD0iMCAwIDYyLjc2IDQ4LjQ4IiBzdHlsZT0iZW5hYmxlLWJhY2tncm91bmQ6bmV3IDAgMCA2Mi43NiA0OC40ODsiIHhtbDpzcGFjZT0icHJlc2VydmUiPjxtZXRhZGF0YSBpZD0ibWV0YWRhdGExNjgwNyI+PHJkZjpSREY+PGNjOldvcmsgcmRmOmFib3V0PSIiPjxkYzpmb3JtYXQ+aW1hZ2Uvc3ZnK3htbDwvZGM6Zm9ybWF0PjxkYzp0eXBlIHJkZjpyZXNvdXJjZT0iaHR0cDovL3B1cmwub3JnL2RjL2RjbWl0eXBlL1N0aWxsSW1hZ2UiLz48ZGM6dGl0bGUvPjwvY2M6V29yaz48L3JkZjpSREY+PC9tZXRhZGF0YT48ZGVmcyBpZD0iZGVmczE2ODA1Ii8+JiN4YTs8c29kaXBvZGk6bmFtZWR2aWV3IGJvcmRlcmNvbG9yPSIjNjY2NjY2IiBib3JkZXJvcGFjaXR5PSIxIiBmaXQtbWFyZ2luLWJvdHRvbT0iMCIgZml0LW1hcmdpbi1sZWZ0PSIwIiBmaXQtbWFyZ2luLXJpZ2h0PSIwIiBmaXQtbWFyZ2luLXRvcD0iMCIgZ3JpZHRvbGVyYW5jZT0iMTAiIGd1aWRldG9sZXJhbmNlPSIxMCIgaWQ9Im5hbWVkdmlldzUwMzMxIiBpbmtzY2FwZTpjdXJyZW50LWxheWVyPSJzdmc1MDMyOSIgaW5rc2NhcGU6Y3g9IjQ5LjM2MTQ4NiIgaW5rc2NhcGU6Y3k9IjEyLjA3MjQ5NyIgaW5rc2NhcGU6cGFnZW9wYWNpdHk9IjAiIGlua3NjYXBlOnBhZ2VzaGFkb3c9IjIiIGlua3NjYXBlOndpbmRvdy1oZWlnaHQ9IjEwMTciIGlua3NjYXBlOndpbmRvdy1tYXhpbWl6ZWQ9IjEiIGlua3NjYXBlOndpbmRvdy13aWR0aD0iMTkyMCIgaW5rc2NhcGU6d2luZG93LXg9Ii04IiBpbmtzY2FwZTp3aW5kb3cteT0iLTgiIGlua3NjYXBlOnpvb209IjUuOTY3MzU3NyIgb2JqZWN0dG9sZXJhbmNlPSIxMCIgcGFnZWNvbG9yPSIjZmZmZmZmIiBzaG93Z3JpZD0iZmFsc2UiPiYjeGE7CTwvc29kaXBvZGk6bmFtZWR2aWV3PiYjeGE7JiN4YTs8cGF0aCBpZD0icGF0aDUwMzI0IiBpbmtzY2FwZTpjb25uZWN0b3ItY3VydmF0dXJlPSIwIiBzdHlsZT0iZmlsbDojMjA3NUI4OyIgZD0iTTE1LjY4LDQ4LjM2YzAuMDctMC4wNyw2LjQtMS4yMywxNC4wNi0yLjU3ICBjNy42NS0xLjM1LDEzLjk3LTIuNSwxNC4wMy0yLjU2YzAuMTItMC4xMS0wLjc1LTEuMTctMTAuMjItMTIuNDZjLTIuNTItMi45OS00LjYzLTUuNTYtNC43LTUuN2MtMC4wOS0wLjE5LDAuODktMy4wNCwzLjczLTEwLjgzICBjMi4xMS01LjgxLDMuODctMTAuNjUsMy45MS0xMC43NWMwLjAzLTAuMDksMC4xMy0wLjE3LDAuMjItMC4xN2MwLjE5LDAsMjYuMTQsNDQuOTEsMjYuMDUsNDUuMDZjLTAuMDQsMC4wNi0xMC42OCwwLjEtMjMuNjQsMC4xICBDMjUuMjEsNDguNDgsMTUuNiw0OC40MywxNS42OCw0OC4zNnogTTAsNDMuMDFjLTAuMDUtMC4xMywwLjU0LTEuMjksMS40NS0yLjg4YzAuODQtMS40Niw0LjQyLTcuNjYsNy45NS0xMy43N2w2LjQxLTExLjFsOS4wOC03LjYzICBDMjkuODgsMy40NCwzNC4wNCwwLDM0LjEzLDBjMC4xLDAsMC4xMywwLjA5LDAuMDgsMC4yNEMzMy43NCwxLjQ4LDE0LjMsNDIuOTIsMTQuMTMsNDMuMDVjLTAuMTksMC4xMy0xLjg0LDAuMTctNy4xNSwwLjE3ICBDMC45MSw0My4yMiwwLjA3LDQzLjE5LDAsNDMuMDF6Ii8+JiN4YTs8L3N2Zz4=;strokeColor=#006658;fontColor=#5C5C5C;fillColor=#21C0A5;fontSize=18;strokeWidth=2;" vertex="1" parent="1">
          <mxGeometry x="17.18" y="-40" width="170.63" height="130" as="geometry" />
        </mxCell>
        <mxCell id="XaQK2IAKRGdh097yGWWp-2115" value="" style="edgeStyle=orthogonalEdgeStyle;rounded=0;orthogonalLoop=1;jettySize=auto;html=1;strokeColor=#006658;fontColor=default;labelBackgroundColor=none;" edge="1" parent="1" source="XaQK2IAKRGdh097yGWWp-2092" target="XaQK2IAKRGdh097yGWWp-2114">
          <mxGeometry relative="1" as="geometry" />
        </mxCell>
        <mxCell id="XaQK2IAKRGdh097yGWWp-2092" value="KeyVault:&amp;nbsp;&lt;div&gt;&lt;a style=&quot;font-family: &amp;quot;Segoe UI&amp;quot;, &amp;quot;Segoe UI Web (West European)&amp;quot;, &amp;quot;Segoe UI&amp;quot;, -apple-system, BlinkMacSystemFont, Roboto, &amp;quot;Helvetica Neue&amp;quot;, sans-serif; -webkit-font-smoothing: antialiased; font-size: 13px; outline: currentcolor; text-decoration: none; text-align: left; overflow: hidden; text-overflow: ellipsis; color: rgb(16, 110, 190);&quot; tabindex=&quot;-1&quot; class=&quot;ms-Link ext-hubs-browse-resource-link root-322&quot; href=&quot;https://portal.azure.com/#resource/subscriptions/15d42957-5f98-4195-9e8b-ce56f7c4b2bc/resourceGroups/AZ-RG-CS-MW-Inventory-PaaS-EU-Prod-01/providers/Microsoft.KeyVault/vaults/kv-mw-cp-eu-prod-01&quot;&gt;kv-mw-cp-eu-prod-01&lt;/a&gt;&lt;br&gt;&lt;/div&gt;" style="image;aspect=fixed;html=1;points=[];align=center;fontSize=12;image=img/lib/azure2/security/Key_Vaults.svg;strokeColor=#006658;fontColor=#5C5C5C;fillColor=#21C0A5;labelBackgroundColor=none;" vertex="1" parent="1">
          <mxGeometry x="647" y="270" width="68" height="68" as="geometry" />
        </mxCell>
        <mxCell id="XaQK2IAKRGdh097yGWWp-2103" value="" style="edgeStyle=orthogonalEdgeStyle;rounded=0;orthogonalLoop=1;jettySize=auto;html=1;strokeColor=#006658;fontColor=default;labelBackgroundColor=none;" edge="1" parent="1" source="XaQK2IAKRGdh097yGWWp-2093" target="XaQK2IAKRGdh097yGWWp-2085">
          <mxGeometry relative="1" as="geometry" />
        </mxCell>
        <mxCell id="XaQK2IAKRGdh097yGWWp-2093" value="Certificates &amp;amp; Secrets" style="image;aspect=fixed;html=1;points=[];align=center;fontSize=12;image=img/lib/azure2/identity/Managed_Identities.svg;strokeColor=#006658;fontColor=#5C5C5C;fillColor=#21C0A5;labelBackgroundColor=none;" vertex="1" parent="1">
          <mxGeometry x="61.29" y="270" width="82.42" height="80" as="geometry" />
        </mxCell>
        <mxCell id="XaQK2IAKRGdh097yGWWp-2109" value="" style="edgeStyle=orthogonalEdgeStyle;rounded=0;orthogonalLoop=1;jettySize=auto;html=1;strokeColor=#006658;fontColor=default;labelBackgroundColor=none;" edge="1" parent="1" source="XaQK2IAKRGdh097yGWWp-2096" target="XaQK2IAKRGdh097yGWWp-2108">
          <mxGeometry relative="1" as="geometry" />
        </mxCell>
        <mxCell id="XaQK2IAKRGdh097yGWWp-2096" value="&lt;div style=&quot;text-align: start; color: rgb(204, 204, 204); background-color: rgb(31, 31, 31); font-family: Menlo, Monaco, &amp;quot;Courier New&amp;quot;, monospace; line-height: 18px; white-space: pre;&quot;&gt;&lt;span style=&quot;color: rgb(206, 145, 120);&quot;&gt;pg_github_hosted_runner&lt;/span&gt;&lt;/div&gt;" style="dashed=0;outlineConnect=0;html=1;align=center;labelPosition=center;verticalLabelPosition=bottom;verticalAlign=top;shape=mxgraph.weblogos.github;strokeColor=#006658;fontColor=#5C5C5C;fillColor=#21C0A5;labelBackgroundColor=none;" vertex="1" parent="1">
          <mxGeometry x="430" y="432.5" width="75" height="75" as="geometry" />
        </mxCell>
        <mxCell id="XaQK2IAKRGdh097yGWWp-2099" value="" style="shape=image;verticalLabelPosition=bottom;labelBackgroundColor=none;verticalAlign=top;aspect=fixed;imageAspect=0;image=data:image/png,iVBORw0KGgoAAAANSUhEUgAABFYAAAClCAYAAAB2iXnCAAAABGdBTUEAALGPC/xhBQAAACBjSFJNAAB6JgAAgIQAAPoAAACA6AAAdTAAAOpgAAA6mAAAF3CculE8AAAAbmVYSWZNTQAqAAAACAACARIAAwAAAAEAAQAAh2kABAAAAAEAAAAmAAAAAAAEkoYABwAAABIAAABcoAEAAwAAAAEAAQAAoAIABAAAAAEAAARWoAMABAAAAAEAAAClAAAAAEFTQ0lJAAAAU2NyZWVuc2hvdFc0Um4AAAJsaVRYdFhNTDpjb20uYWRvYmUueG1wAAAAAAA8eDp4bXBtZXRhIHhtbG5zOng9ImFkb2JlOm5zOm1ldGEvIiB4OnhtcHRrPSJYTVAgQ29yZSA2LjAuMCI+CiAgIDxyZGY6UkRGIHhtbG5zOnJkZj0iaHR0cDovL3d3dy53My5vcmcvMTk5OS8wMi8yMi1yZGYtc3ludGF4LW5zIyI+CiAgICAgIDxyZGY6RGVzY3JpcHRpb24gcmRmOmFib3V0PSIiCiAgICAgICAgICAgIHhtbG5zOmV4aWY9Imh0dHA6Ly9ucy5hZG9iZS5jb20vZXhpZi8xLjAvIgogICAgICAgICAgICB4bWxuczp0aWZmPSJodHRwOi8vbnMuYWRvYmUuY29tL3RpZmYvMS4wLyI+CiAgICAgICAgIDxleGlmOkNvbG9yU3BhY2U+MTwvZXhpZjpDb2xvclNwYWNlPgogICAgICAgICA8ZXhpZjpQaXhlbFlEaW1lbnNpb24+MTY1PC9leGlmOlBpeGVsWURpbWVuc2lvbj4KICAgICAgICAgPGV4aWY6VXNlckNvbW1lbnQ+U2NyZWVuc2hvdDwvZXhpZjpVc2VyQ29tbWVudD4KICAgICAgICAgPGV4aWY6UGl4ZWxYRGltZW5zaW9uPjExMTA8L2V4aWY6UGl4ZWxYRGltZW5zaW9uPgogICAgICAgICA8dGlmZjpPcmllbnRhdGlvbj4xPC90aWZmOk9yaWVudGF0aW9uPgogICAgICA8L3JkZjpEZXNjcmlwdGlvbj4KICAgPC9yZGY6UkRGPgo8L3g6eG1wbWV0YT4KOiBZrwAAQABJREFUeAHsfQncVlW1/gH1OqFIKnyIgAODioKaXivLLM3SuJrjNc0hpDTN0rqWWl41JxQHMKfUfqbSrcCGv3nNyHkuJ0hGUUkRUBEQNRwuyf95Xs/Czfn2Wvu8532/jw9c6/d73/O+Z09rPXvtffZeZ+29O7W0tCzN2phuGDO2jUvw7B0BR8ARcAQ+Sgh8/WuHrBLi3nDDDdk222yTvfjii9nBBx+8SsjkQjgCP/vZz7L11lsve+ONN7Ltt98+mzhxYnbsscc6MI5AuyHwxBNPZCNGjMjGjRvXbmVqBXUkXjQe/b4j4Ag0jsDqjWeRzuGYY45JR/IYjkATENhxxx2zT3/6M9nqq6+WjR8/Pps0aVITcm1+Fscff3x2++23Z//4xz+an7nn+JFCoKouVU33kQK3HYRdtGhRbeB/8cUXt0NpXoQj0D4IjB07Ntt3333xLF49+973vpc9/PDD7VOwl+II5Ajcfffd2ZQpUzoEHh2Jlw4BiDPhCKyiCHRqD4+VVRQ7F8sRcAQcAUfAEXAEHAFHwBFwBBwBR8ARcAQ+4gh0tuTfbp11sgcGD7aiNCVs6Mc+lm2MtxoWDVxrrWzHdde1omQHbLihGm6FqYkiAXdut132iS5dIiHlbm36b/+2XMRPwlX2sI03rn1a1lhjuTD5U0Z2idsRrhbWVlhH4H1lw7qtMdunW7esu6KXjZbdlli3t561dXlWP2GFNVpHVvq2rD+rXA+rH4G21s/6OVo+hevS8nj4P0fAEXAEHAFHwBFY+RAwDSs/3HTT7I/z5y8n1ZgBA7LpO+203GfEZpstF6fePxci/TYw4lh0CIwPJ/bqZUXJLth884wDtBhZYbH42r3fv/ZadmqfPlqwev+yLbaoYXYXDFXE7zPrr1+L22fNNbPBMBid2bdvttXaa0fTl5E9mlC5eTAMUMe1tCihjd+2sLbCGi+58RyajXVVjtq6jop8aeWNRJuigbUtqC2xbm89a+vyrH7CCmuLepM827L+pIwyV013y6StEmdlLK+t9bMKjmGajqJLIU/+2xFwBBwBR8ARcAQcgXoQUN1EtsEkf2dM/k96/vnl8uvcqVP2ENaE//cLLyy7/9J77y373VY/zpk1q83enNfD85Vz52bfgYFnZ3itPPbWW6WSngVDzGe7ds0OxFrPSYsXZ7sC18X/+lct7W9gqOHnP+C1o1GzZR8EQ05vGHSuefllrciP7P1mY10VyPauo/Yuj7h0FKyr1lF7prP6CSusLXnsKPXX3rq7qpfXljqj5d1RdEnjz+87Ao6AI+AIOAKOgCOQQkA1rHDyP/fdd7PXlixplcebMArEjCkD4C0yasstsy1hlJn/f/+XnQXjy/jXX1+Wfvy222Y3vvJKdnj37rU49yLs2GefrYV/FfcuQ9rV8O+y2bOzX7z6au0+PVCu7t+/9vsBGHTOxMkJQv+OZTSX4I36x7CM6M8LF8rt2tUK2wTLcS6Cl8wOMI4sfv/9bDTKGzNvXi3d7YMGZfehnP3g1UF3nksRNhaGj5Cee/vt7NPAp6xhhbKNhGGIRhXSQ9glvwxZsleRgUsGLoHnTNfViHKWPTxkSO263+TJ2bxIPdcC868f9+6dHbDRRtm6SPsqDGnnQZ47cswtrK0wZq3phCUfl1OdDQ+fT0Ae0i2oH9ELK6wWWfmysK6ap6VLWltpqzq6DXr9E7Sdv735Zg2Be7Gk7Xi0va5oOymd+NwGG2TnoL0U24Mmg0Cs1a2F9U+hnzvn9Sr5HDJ1avYidM7SiZSeSV7Fq6XXVv1VLY/lf6tnz+wo9AndsMRqFvrY42bMyJ59553M4qXId9n/FmbMQ6sjK3+r/laFtqLJXqZtanhq7W8KniUaZqnyrLqtqp8aL8TEKo/hMdnp4fltvIgYimeMED1cOT4YiWerpUuMr7WVFC9Sll8dAUfAEXAEHAFHwBFoLwTUpUAD4f4/E4P+GH0KRoVr+/Vb9umT7xvycywTWrJ0aXb09Om1CdxPESfcO6UX4p2OCfr9MFwcgTiP5ZM8lsGB4KkzZ2b/AwPHacFSm+mYcJyACeDT//xn1qewzIcDNE5IhmNiMqCwXMEKu2ngwGwdGAiGId2Vc+ZkZ2CS3iPfR6IvPDkOggHhDJzW8r8LFmRnBrwIFs+jzK0K5UlY8bo58iM9XtK7JUxvyV5FhkeA95HA/U4YtKZiQM/f/KSMKuTpDRheWA9745Qd4jIaRrCN8n1xLKytMOar6YQl37c32aRmHNoXHkAHY9I9JTdYMT8rjOEaWVhXzdPSJa2ttFUdUQ/X6/xhc++J/2wDZcr7IvZZibUHTQbBWKtbC+sLX3ppmV4+iTazNnimUYVk6URKz4Sn4tXSa6v+qpZ3OJY0noSJ5m/Qz30ZbekmGJrXzw2dFi9Fvsv+tzBjHlodWflb9bcqtBVN9jJtRcNTa38sS8MsVZ5Vt1X1U+OFfFrlMTwm+x141vTHi5adgn3J9sfzlW2bZOmS1VZSvNQy9y9HwBFwBBwBR8ARcATaEYEPZ1qFQrlu/xVliQ89VmbAuCCf92BM4cCxOwwnIzEx4oBQlhDtjiUwIf0FA60RiMM359djUiE0DhMNerdwYrUEXiR7YzInRCPAa3jDFdKGmNT3Qpnn4y08y7sE6YSssG1hEOEyGKbhQPANyLIQedOYIjQG3jJ3wfjDZT+rY2LXv2DQeRm4sOwytFFusGE5VSgmeyMy0BC1EEaSRfjwNz9l6HJgQcwGYJD8Um5w2wK/LaytsLDMok6k5NsYmHJJ2nvQE77x5VIIIStM4mjXGNaM20ieMV1KtZVm15Emr9xPlVdFBsm7WLdyX8OannDPQCdb0Db3QB/wzdyjzdKJsnomZYdXTa8lTkz2Rso7Ap4qD8Nj7TIYdIn7TehrnoTRmJTiRXgqe7UwC/PQ6iiMU/yt1d9Hva0Qp3rxtDDT2qZVt43op8aLVV6oGzHZJ8KI8pV8Y3le+Xzn81VI0yWtrZTlRfL3qyPgCDgCjoAj4Ag4Au2BgLoU6EVMnntichMjeo/QgBLSLvkbqdB7gAYLTpBCuhvGkxhNwwRZiJ4yfMP1p8LyHgnnlct4SDTukKYH6a0wGlVIW8JYwg9pAuShoUFoUj7RWZDf43KJkCiTGBfC+7Hf83KDkCy/icWp914zZKi3zFFYovEFLAmZDO8QwWUtGDcsrK2wsPyiTqTkoxFtBJaA3YmNgKlj52JZ0m3woiFZYWGZ9fxuJM+YLn2wECtbztMm1lbq4ZFxtTqqN59i/EZkKNZtMe/Yfxo8r4a328Wo17/CmEeydKKsnsXKSmEWk71v3m/E+p5YGeE99qm/K2wILuEpXiRe2auFWZhHlToK04e/P+pthVjUi2cVzKy6baQ9aLxY5YX1H5OdL03ohfpjLA3mEtvb8746TBf7rbWVsrzE8vR7joAj4Ag4Ao6AI+AItBUCy1sMglKmYQK9E96uliWZbG+OScf83M2XewjMDwwWzGuR4rlBt3shrp/mBN4i8kfimnC+5ZblSLxnhYmhYxTWd4fGHKYrS/0gY3FPFy3tP2Ak4hu6XbDU6ancYBOLyyVUawVLNWJx5F6jMixFRvT4KEvEeG9srjsUSxc4meS6eO670Ql5WFhbYWHZRZ1IyUcvFS4Dop78ACdX8VQpMaxYYWGZ9fxudp5l2koz64iyvgv94v44pN7ArUj1lldGBpZRrNtiubH/N2BJIfchui7waLN0gvpJivUFsfzlnqXXEid2LavXsbTsD2OnLJXlxeonimEWZiFvVeooTB/+XhXaSihP7HeqrcTwtNpfCrNYeVbdVm0PlFXjxSovxCgm+zgYEs+FIXwPeK9yGfFR06aFSdTfWlspw8vwHj2yTTGm+COMOE/k4xG1IA9wBBwBR8ARcAQcAUegCQioS4G47IP7MMg+GqmyOOF+B0aTYRjQkI7HBo0k2Syz9sf42hdvsjggHIoJPCeADyY2eKUxhW/5j8Gxwdy89ujg+GArjHud/BN8cp+DnvkyHZ7Yox11HGN5cyyBeTh/kx4LL94bh6Uq3IRvSL4vy24YXH48WHPO+OSLm8OWoUZlmAgDzxCeDBSZYFvl01BGrL8L7IQsrK0wSR+7puSTZWJzoAMTgBsnLUJWmMSp99rsPMu0lWbWEeVlfmxbpOFBW6ndwFe95ZWRQfKu5zoSRrIuaP+yBEjSWjpRVc8k75heS1js2kh5fFv/eRgl98KHtD3aYbjUMMWL1U8UwyzMYnI1496q0FZSONTbVpif1f5SmMXKs+q2Ef3UeLHKS+HFcJ4kOBJej3z2PlrS0KG1lTK88PhmbhrPZUNOjoAj4Ag4Ao6AI+AItAcCqscKPUa4NvpoGEouhneH0PvBJFbuyZX7qlyBTU2n77RT7dblSMc14iEtVdJzv4y7sLSDdAtch1/Nl9BchyUBu+WTEIYxb56ksefTT9eWI52PN2GHYQA1I1gKxHhcqqSFDX/mmewq5HtvfioODULhRO59ZhDQh9P2LDsOk1KWJUsUgmjqz7OwD0w3GCTGbrPNsjjfAA8hESuevEL5boUh5pR//COzZG9Ehj/gDSKPd74DpzRxD5ndJ07M5uZ4hzzJbw7Ufwuebsamv6QH8/XxUpcW1laY5C/5yH9eLfmOgk7y9Cl6AvFUpwuCk6KssDD/4m8L66p5sgxNl1Jtpdl1NAbeH5diYkP9WlZ/AQhWeVVlYPaxurWw3h1tfX20FelDmAc3eWU/YulEGT1jXiGl9JpxNdmrlMf82JduBo8vbuxNog4fhjf4NFRZbawWGV+xfsIKszCTdLE6krDY1aq/VaGtxGQO71lthfFieFrtL4WZVp5Vt1X10+LFKk/wicnOMJ7ctiteYPwqP+1P4lu6pLUVpi3DC+OFz27+d3IEHAFHwBFwBBwBR6CtEOjU0tKijj14Ug8HPkOeeqqu8ukJMQuT8fYiep5ohgErrDvSrYHlLLPr4PVRGGNOg9HjnmDzvXrk3AxeQFwe1CyqIkOzyi7mY2FthRXzCf9b8tHDiZPjGFlhsfhl7rVFnu3dVuiBFjtCvYz8Wpz2lsHSiap6psmWut9Iec3uCyxeLcysdFXDVoW2UlV2K53V/qpiZtVtVf20eLHKs2RvJExrKyuCl0bk8LSOgCPgCDgCjoAjsOoiYBpWVl2xXTJHwBFwBBwBR8ARcAQcAUfAEXAEHAFHwBFwBBpHQN1jpfGsPQdHwBFwBBwBR8ARcAQcAUfAEXAEHAFHwBFwBFZtBNywsmrXr0vnCDgCjoAj4Ag4Ao6AI+AIOAKOgCPgCDgCbYhA0rDCtdYhfRL7rhyGHff5aclP1QnD+ZvH8e6I0y5WFjoAJxJpZIVpaTrK/Q2xn0a9xFN/yp4EVTbvtsizTNk8jjlGVeWrgifLr5ouxrvfcwQcAUfAEXAEHAFHwBFwBBwBR8AR6FgIqDPvy3CCyD758axkmbvwP4AjkPtg89XBMJrsj6OB52AT1pcjp8nwqMMtcCTx1wsn31QV/WAYPjaEEeeal1+umoWZ7gKcLDQZx9FOL5xgxERWmJnpCgy8c7vtst6oJ9JMnGB0IU5Iks12e8HYwKOwvwJMWZ/HPfvsMk6f3GGH2lHXvMGTly6aNSsb//rry8K1H43myeOnrxswIPs1Tow4Mzjhp0p5NOJc279/tl1u2JsNOT6PE6RIe+LEmR/37l07RpzHfl4Pfbpq7lytmGX3q+JppVuWuf9wBBwBR8ARcAQcAUfAEXAEHAFHwBFYqRGIeqyc1adP9lkcjXjglCnZwMcfz4bBQPIWJqKk3+DYxFNxKg6PCdXoHEzIfzhzphZc9/1BmCTvDE8Zp3II3LlwYbbn3/+efXLChNrR0BfgGGehcVtvnRHPV2AQW01u5tfTUa+sb37+CqPLeUG6QtTl/jaa50UwbFn6tFxh+GOVdyF4Xn+11bIvwphCOXiCk9CZ0OtH33yzdp9HNH+3V69S3jlV8bTSCU9+dQQcAUfAEXAEHAFHwBFwBBwBR8ARWLkRiHqsfLV792wkjCOTFi+uSfcQJtlliEuAroa3AOkBHEcceh9wWcZFmPTu0KVLthhGmdGzZ2dj5s2rxb190KDsPsTfD14UtPRcirCxMOBw2dEl8Jzpioky6WEcdUzab/LkbN6SJbXf2hc9Ew6AV826SPsqjuQ9D/LcAYMDicdIX4LJPL0b/pzfk3ysMMYZv+222Y2vvJIdDoy2hFfOvfDoOBZeH5Z8XE51dt++2Sdy49AtkE2wscJY3gnwLjkUHkAj4XVy64IFvJWkEYgrdBO8QPaC51E/1M2z8Mg5Yvr07Dlcr8Ex2kXDiuDDtHdDroNQbg94CtEIY1Ejef4I9URjRz9gWZas8naDVwrD5UjrvyJvoe6oh7/l/x/Jr/TASh0/XBVPK53w5FdHwBFwBBwBR8ARcAQcAUfAEXAEHIGVG4FWhpXN8yUkj7/1Vt2ScSnNCTAyHAdjQB9M5EO6aeDA7A0YQ4bNmJFtjUn0GTA0/AWTd07a+6LMg2AEORVeLp/CshB6FtCwwsnvkZgkn7jJJlkvxGE4KWVUYRyWRV6Y/yHIe/SWW2a7woODk+gRMPDQyHAtloH8CGWFZIUxHpe9nA5jwM0wWJwFr4fB66xTS27J923wT+PQvvAAWrNTp2XLVJjQCmN4dxg2aBDoBiNQFfoMPI/egbcR5SXRqGLRXjBM0PjF+rgnrx8rPsOq5rkV9IB1w6U6N0I/ypJW3rZ5XXCZ083Ij8ugfoblPr+fP7+W9RgYxE6Gl8rGwPQLkHM6DIdPYglYPVQvnpJ3MZ3c96sj4Ag4Ao6AI+AIOAKOgCPgCDgCjsDKjUCrpUAbYdJJeiNf+lOveFMxmX2t4OHACS/3/KChhIYJ5r0QcTh5FxoDQ8Vd8Fq5EsaO1Tt3zvrnhhkaBBbCGLIIH/4WA4Gk066XIx+WNwCT95ewzwaJ+75wI1Eaac6HUYThlwTeHVZYWA4NQvRGoPfD9Zisp+TjRL4zDCrvwVNnCvDhciohK4xxuMfJFfDgeaKCoYt8HQsj1xkvvCDFJa80bNFzaH3gNL7gzZNMrETQ8rwU3khXzJmTzUfdNoPogUTiHkBfnTq15qE0Ap5JQvfD84pxiMl2MB79ITe4SHjqWgVP5lk1XYofD3cEHAFHwBFwBBwBR8ARcAQcAUfAEVjxCLQyrMzLjSKy/KYZLMpGqlvCWLJXt261zwR4CtBYIjQp9xxYkN/rmk+SJbze6yhM2ifvuGM2rEeP7NPw2iCtBeMGvTFIM3LPjekwdAhZYRKHVy6TCSklH403q6PsOwcPzh7FcqahwabAVhjL4DKsn8JIJMuywnKt31xi9Et4bfwSBquyS4iYH71wPjVxYnYavIO4cS8NYY1SLM8DYbyhpxINTbugTrrAmLYp/nM5WVUSfboKxhp6oozClXu3sCwSN7Xlkqodn3oqOwjeQz+E5xGXfpWhqnhWTVeGJ4/jCDgCjoAj4Ag4Ao6AI+AIOAKOgCOw4hFotb6Ee1NwMroLJpxPGcsklixdmq2FyXAZEmPNKHheTAsMGWXSMs5SfOjxUZY4md0bxouhkybVDCicrH8OSz86IY9p+b4xjPMS9l7pExgOrLCw7EUFb56UfDQecBkQ92H5waabZtxg9bZ8vxQrjGUOAO/0tKHhifyWpbHYpPZ+eAD9BIaSKvQ7eHPQsELDgyylGQ4jFY0ffwTvVTxowjy7YGkU99qhAYxEDxl673Bp1InPP1+7V295shfM28hXiHq6NvSU+kwSo9jT0AMukdoZRh3Zd8UqryqeVdMJ/351BBwBR8ARcAQcAUfAEXAEHAFHwBHo2AhELSPjsFTlW1guMSTfs4LH4X489/QQcbgHCzeHLUOMy+NtT8L+Fj3zpUY8dYh7bJShiTAqDMHyjt6BEaRMum4oi0s/ePqLEI0TXIZ0TEtLLexoXIWsMIkTu6bk2xteOqQ5KHsCsHgXk30hK4xxuEku94fZA4ahssRjft+BceFyeGxwzxzZN0fSb4Z79BBZD9jwN4neRPvnnh0twO1c7IFD4j4kQjxGmxsbc2lLkerN80Z40uyMPW/kMwPGJ27qK0YV5l9veTz6+wV4Ig3L65byrAUDDjfl5Sa2NBgeCeMQaR/UCcN4co+QVl4VPJlnKp2U61dHwBFwBBwBR8ARcAQcAUfAEXAEHIGVF4FWHisUhUs3uFnq2G22WSbZN3DkckiXw/vkHHheTN9pp+xWTIhPwbG21+GkGZ7KIsSwWfCA2RObkw5H+qsQfm9+sg+9Bb6JzWWFPvQx+ODOh6aHrLYXxn/AA+UOnMjD/Vd2x1KVufmSJUkfXmkg+S144gampAfhuUFamhs0uBzkfHhjHAYjASf0IVlhEk/ykf+8WvIdhcn8KBhHOLGnlwaP+hWywiQOryEe4f3ibxqrZGnSbcBLiPXHPUZOhkfIcfgI/RlGGC6doScHjSmyJ8ls1Bv5pEdNkYq8NCPP9wNjU9XyRkOO78HbhRsJP7L99jVjHk+fklN/zoY83Aj5CNQH9e9m7I/DDZeLFMpXFU+eNmXVQ7FM/+8IOAKOgCPgCDgCjoAj4Ag4Ao6AI7ByItCppaUlnEe2koKeCHJ0bavACjd4ys0aWJIzu45lLRWKKZWE3jOagcYKszK35JPlR7H0Vlgsflvdo7cKFUKW1TSjnLbIM8UX94bRdIz80LvFyRFwBBwBR8ARcAQcAUfAEXAEHAFHwBFoFIGkYaXRAjy9I+AIOAKOgCPgCDgCjoAj4Ag4Ao6AI+AIOAKrKgLRPVZWVWFdLkfAEXAEHAFHwBFwBBwBR8ARcAQcAUfAEXAEmomAG1aaiabn5Qg4Ao6AI+AIOAKOgCPgCDgCjoAj4Ag4Ah8pBJKGFe79UZY+iSNtD8PJMfxwH4uQrLAw3sr+m0c774gTjCw6ID99x4oTC9PS8RjnGG2EDYibRUOxefDGRn48falMeZoMGp8bGmWWKU/Ll8dIk5ceBT3V4rflfa3+rDK5l49GGi5l60jLd2W4b+FC/qvUu4Yn80uVxzjtRW3Z92gyVNFd5qXVQwzrVN+j8daM+xqfzci7PfKI4RmWu7LLR1ksGaywEId6flfV+XrK6Ihxy/QvzeCbJ/Z1pH61GTJ19Dwardt6x3UdHY8Uf42MpVK6XaV/sfKMjaGb8UxN9a2aTqTSpbBvVngMl2blreVj1e2KxqUZOqHJzfuW7Fo6S6+1PMu2zZh+psZLGp/F++rM+7Ittsj2wWRaiKfePIBTZSzqg41uB8OosD+OYZ6DU2XCDUKtMCvPlS2MR/ZugZN5vl44RSmU4wKcSDQZR0jHTqQJ4xV/h+moPNf2759tlxtxeIrP53H6EmlPnMz04969s56oDx5zff3LL2dXzZ27XHY8Qvu6AQOyX+PY4zODU4qWixT8uRAnQB2PU5zui+jAkzvskK2Lo4tJPAXqolmzsvE4ZShGoQyxcLnHo4rlVJ2ZOJnoQpzkdE9+ulMZ+SSf2PW2QYNqR21PxVHSzyDvshv1WpjFwh7FCVg88lvoKRy1fei0abW/Vv1J/Nj1yxh0fn/TTbNeqFueMvV9nIJ0R461hYtWRzR4/iI/PSss70czZ2a3zJ8f3qr0O4aLZFQ1TNKHVwsXiRerdx4zztPDNkQ9Ec/vAs87S+BZpjwpN7xyU+XjcZT9V2DUY396XHAyWhivyu+27HtCfizdtfCUPGL1YOmu1fdYbcwKE16sa4xPK74le6O8WG0lxpOFp8SvVz5JF7u2pV7HypN7lgxWmKQPr5YMls5b6dq73hstL8Sj+LtM/1JMU+X/SIyPvvPcc9ld+fO+mMfB6DvZX1+DcU2RrLBi3Gb+52EHPPHy0KlTs6cwtgvJCgvjye8VIUOjdVt2XCcydpRrGayL9aeNpSiT1f6sMUPV/sXK0xpDW8/UMnVTpm+N6UQsnYVZGV7qfTZauJQpr944Vt1KXjFcJKy9rppOpOYI1rinjOwx+Sy9tvK02maxnFA/y4yXmL7YFxTzlP9Rw8pZffpkn+3aNTtwypRsEiafu2ISvhgT9BT9Bkcc88OjkYtkhRXjrsz/z4FRIWVla4Z8bATrw5jxRRhTeGrTLpggC52J+nsIk7ZTEcYHx7kYqIydN2/ZscOMdxHucSLZDDodR23fgeOFSefhyObzwNv4CRMayvpO5PdLGH3+CR7PhjwXIM9P4JhtUhn5tMJZN/1h+Prc3/+ezanzZCoLMy3sEhiEbl+woMbO2wHeVv1pvPM+jzj/FXAZiWOkaTy7BAbQO558spbEwkWro0fefDPbA1gI7YZ2fybqUIxYcr/qVcOF+VUNi/Fi4cL4Wr2PxjHoz8O4NnTy5IwD+tHAc1AJPFPlxXjkvXFbb529ihOpaMz7wBSpxaz/fkfoeyw8KZFWD5buppDQ2hjTWWFWvhqfVpqU7FV5YZlWW4nxlMKzinyxcuReW+q1lFG8WjJYYcV85L8lg9VfW+mYd3vWe6PlCRaxa3v1L7Gyw3uD8DKJL11ihhUrLMyj2b+Pg7F8Bp4jRaMKy7HCYnysCBk6St3G8GjLe2WwLtafNpYSPrX2bo0ZqvYvVp7WGFp4rXKt0reyHCudhlkZ/up9NrYVLhqvVt2mcNHybM/7qTmCNe5Jya7JYem1lWeqbWrlpcZLkq7YF8j94jVqWPlq9+7ZSBgIaFQhcZIuxMncAfBIoYfCq5iYnod4MqmWOPVe6SJ0ESaMO3Tpki3G5HM0Jo1jYAgQGr/tttmNr7ySHQ6+tsSk+F68UT42f9N7Ah5oh8JLZCQmsLfmE1hJp10tGWjNnADPgi/A64OmJDb4X+a8WGF0pbwaHiSkB/CmJfQCoYvXJZi00dL259wAUYuY+LLS7Qb+jpg+fdlR2H/FBFmoO/D8W/6fjYJEj6HXliyp/f4R6vBR3O8HLENK1QP14jJMRDkhvAx19AtM8Elh/d+NujkI9cElNpw8WjLUEitfI4C70E0oZy8Y6/oB42ffeSez5LNkuB2eKhuDL9ItmOCSvoc3Y4+ivlOkYcZ0VtgCYPBSxIBj1Z/GC5eYsd3dmOP+M3ghHdGjR81DiV4WFi5WHYX80aD6GNr7/FxXNF7k/rfQ/o6CXtAzh95Kx82YUasjhlu4VAnT6jaFi1bvz0GXaGQbhj5sAeTdHPq1eufO2ZfQtugFpOHJtmTVg9W/sM2y3Gv69YsaVrT+bAB4G4W2x/5vPnTqrBdeWOYV1hZ9jyWDprtcKmjhqdUD25+GtfRZWt9DPdPaWCqM4TGy+NRwScnOciw+Y3zIPa2taLwwnYWnJZ+UGbta5aX0WusntDYdKz+8Z8lghTEPjRdLBk3nmZ+VjuFavVt4Mp1W7ynMqpan9T1W/8Kl4mfDEP+J/MXOLXixJmMfK4zyWfQ59MEcXHOt+qUYa4xFvnxzyhcJXXPv2IfhIULaD0ZxjmW0sHno262xW4pPDZda4fnXQRgTnwxvxxgVw7TyLPkog5YuVqbcuxfj2RMwxpmcj+XD+/RA/tfSpeq4le3oPoxl98PLubAemIc1rtOeVSle3sDLW02XhO/Y1eJTaysprMNyivVnjaWYLtb+UmOUKv1LKk9rDE0+rWcqw2Nk9a2WTljpWE4Ms1j5xXtV+sgULtrzoVh2+N/qy626tXCx8gzLLv5OpbPk03RCmyOkxj2W7OQ7xgsdBqzxtZWn1TYt/bTGSyG+xb4gDAt/tzKsbI5JA+lxZbL5Bjr4E9Ahc9J8CB4mtFbtCu8EGQCHmZf9fRNc8ZnvMEzKtsYD8gw8qP+CiY0s0aCr7ekwBtyMCeVZWLYyeJ11lmVNKyhB6YZBfVmyZOCbED64T8FSiJ3xIP9v8CKGFSuMy3qICy1afTAJCmkEBgg0CFyLifCP4H0hdBqWdHwNk9IicYnKQVgyoqXbNpefywm4jIFLZX4Gt9jf50s3xsAIdXKvXjUjAg1E05Hfk7l76lbAl/XGZUM3FpaApOqBinkqcKEB7DTIIYYV8r8XyuF9Kt49Qd1pMhRltv5/BpP9d/DQJYYkSz5LBtbPQGBHnf0mdO0dGPEkT6t8CzMrjHmeB4MaP1yq9V8YeLEeUvWn8bIo9xpbD/pJr4f1c52X/YwsXJinVkdhebujHk/CQKwMHQ4D2knQs2vmzMn+CKPmp+DZxk6RZOFSNUyr2xQuWr0PydvRs2g/x7a0ZBzYbYDPpnkfqOFJ10eSVg9W/0KjikVaf/ZzLNtbiD7yaBhm/hO4/xSGmU+j3+WAuy36Hk2GFvS1pFjfw0EsScNTqwem0bBmGMnqe2Jt7INU8fYnYdrV4lPDJSU7y7L41Hix2orGC5/FFp6WfBofvG+VZ+m11U9obVqe/Ro/lgxWmMWLJkOqv9bSCe9avVt4WvWewqxKeeRV63us/uXbm2xSGy/tC+/mNTt1WrY0mflpYalxD9N+EUteOdbgM4VvE2lY4UuiI9H/nYgyuRSW4ST2gfOMMMaxxm4an0xH0nD5IDTLvgt+aJiPLX+OhWnlWfKxLC2d8BG7vgfDCfvO0LBCfeYy8Sl47pHYXmLj1r6Iw/FcsR6YxhrXac+qFC/Mk2PvmC6xTI0sPrW2ksJayorVH8OssVSs/VljlKr9i5Wn8C/X4hia961nqqQrXq2+1dIJKx3LiGFWLLv4v5E+UvIq4mI9HyRN7Kr15dZ4iflYuGh5pubaVrqUfGV0IpwjWOOelF5rvFh6ncqTmGpt09JPa7zEPElaX/BB6PLfrawRG+Vv9DnJiNHl+V4dX8KD7yVMFkncU+S13DMilsa6R6D40Lsenhw0oLDchZg0skO/MtgXhIYWsTSKNwbz5cPsNcR/QjEExcpOyTAOHirMlx9uxLsHJvay3tcKm4oHFXmRCS/L5gZJHAQci4n8DEyq6AFzTe7Z8gsYQGSZSMgnl79Y6ej5QuJ+Nl/Fml4u3xiBybsYVu6HxwG9eI6FkYeWvwvxRl7oUrzxuQIT4aJHQpl6CGU/EgahvaEDf8o9cDgA2gv/Kfv4/J4lww7gfVfwXSR2CvRQESJflOOU4G2QJl9KhpnQ13/D4I8k3lj8neJFw4xpzTC8aeOApjf0mgYI1tFekybVPJeYNlZ/KV7orXAqDHI/hyHtWxjQkbrm+qDhUouEr1gdSRivw+D9wuVhUqcpXo6ADjwMXbsM+kQKjVQmLooOMg8tXapuLVy0et8g7+s2QBv5DrDcD5ODG2DA2CCBJydSVnmp/oVyahTrz2jspvGYbo4cEPKzNzy4dkf7GZcbU5vZ95A3TYa18vYT090Unlo9sLyU7mp9D99mx9oY89TCUnpt8anhsjY8nUiaLlXlRWsPLEvjhc9iC09NvhQuVnnkRyOtn7DaNPsV6/mgyUAerDCNF4133k89b620Wr0zjYWnVu8WZhwvVS2P/MT6Ht4nxfoX3qcHaGf0Ce/hufEcPDNlsm6FWeMepiONwRiAYy4urfkankv9Yczm+InPGBqYu6DPDp83TGOFMTzsQ8JxnSUD01m4MJzPTXpuxygWZpVnyWCli5XNexwr07PhBvx+bPvta3t68eXlC8BRSKtbhsfqgUYkbUxrPatSvFSRT2SI8bkm+mRrbmFhLfnG6o9h2lhKa3/WmKFq/2LlKfzzyj6jOIbm/bA9yHj+ZbThKv2uNdZnWVafrGGWeh5V7SPJDymGi/Z8SPGi9eXWeIk8WLhoefZGX2vVkZaO4wJNPvJCiumEzAcYXpwjWGO+lF5bvGjj61Se5DHWNlP6aY2XmCdJ6ws+CF3+u5VhZR4mbiRxt1w+epaNwqSIXhAczLKDJYnyFOOW+c+Oj8S3wPImeAIepovyvCUPLjGJEZcphUuVYnGK91Iy8EEjxOUNH4cnhhhWrDBJE17pxUHioIA0Pch7LrBeLZ+o1ALzr3fRcKx0gs1VmNDSA4Kfb+CN+4HwYPktJlrc1PYCePbQo2Q7dKq3bLNNzZDACT6t+xz87AK+uuDBw7fzdPUtUw/TAt7ZIeyEPKTR0ZOIH+60zE2BuDRpa5RNislOS+7OOTa52LWL6B//0PX1l/Cq4V4r4TIvTT42HlJKl2qRgi+LF2KqYbYtBixaGN/y8S0biW2FhqwxW21V482qPy6Fs3Ch+y43P+VbIe6DQiOkYKbhIobIWB3NDpYp0XvqD8GGtRYulKsn6ud3QXzeI1XFzMIzpZ8WLh9w1fr79byvo/cHB/scaK2FNvF63vdYeFrlpfqX1px8eCfWn/GNKWkK9EiI9S5vQ+Re8Wr1IVbfw3w0GSzdpacKScOzFqh8WVgzidb3aG2Mg04tLKXXCou12xouKV2qwovVjti/aLyQ0RSeMRlTuFjlxfKTe1o/YbXpFC+Sd71XjRcrH0vn+by1SKt36qeGp1XvFmbko0p5wn+s75Ew7coXRXxhcOfgwbVn0bkwMNyWL8nWwlJ9D8uahDENScaY8vKgdrPilzZ20/iUYixcvoYXWHwFKbhLGl61sFR5YR7h7yrpOA77AV7EcHNGvvTilW2AS8HLUKwe+uYem7FxnfWsSvFSRT6RIcYnDTWkeseDkqdWfwzXxlKiB8UxH9u7NmZopH/R8hQZtDE0w2PPVK5UsMafkm/xao01inGL/zXMrGdAI30ky9dw0Z4PFi/MT+vLG6lbLc8NE3MnLR351ORjGCmmEzLHY3hxjmCNe1KyW7xoep3KkzzG2qY1F2Wa1HjJ6guYvkitDCvcCJVvrbkZanEjLioj35QOxVt3dqqckHMtbKeCcWAJ3A85QYlRMUwmhaPw5jGs1GJacQ8q3ud6TnrMsGMN14EV48n/MjJslht7mIaV/wxkFbLCJE54nZZPhlgu+euDqxA3ZT00shSIS3uGw8OFFEsnbtLhZqjElW9NZRNbMUQ9jfK5jIad5Vu4cuLOhkfig5YPH7qYyr4dVj3QiCBEFzA+PIrEiTYNK3Qpeyx/eMdkYGMNG2wxH/4fi31Q7ofx4Ccw2AhZ8sk+M5YMkk94tXjh/iEaZnwIaWEnBh42LOvN3AOMXlk8iYgUqz8O1C1caHT8JowrJBqSHsZbqHDz4li9i2GllghfYR2JlxOt93wL9etgbyMLF+ZFYxENd0Xi20QNFwszKyylnxouRd7C/7J5MZcvcTNgEtsE26mlZ8RTK69M/xLyUPzN/oH7lHAgxnolyeSCe8DMzz3zuKdN0eusmFcjfY/Wz1t9j4Vnkbfwfwprxi3T94RtjPiFFIal9DpMF/626rYe2cvyYvU9PCVNq6MyeIZyyW8LF0t2Sa9dtX4i9ey3+kGtrNR9jRcrnaXzVrpiWFjvfHmi1Z/Vf6b6wbDMsuVJmljfI2HalS9puHSD4wFO4LmxoBhWtDBr3PMl7JeSoqWIQC+ZGFlh2thN41Pyt8aYHDtdFzmdiGm1sFR5mgypdMPhOcMXZVyWKx7cHIPR23E/jNuvxDNuKF4U0Wv34vx5JzLWc7WeK9azKsVLFfksvlP9C9NqWDNMqz+GCcXGUhIWtj8+j7QxQyP9i5an8BAbQ0tY7JlqPQMkXexq6UQsvnYvxMzixXo2lukjNVy054PFi/VsrFq3Vp5VeSHmmnxSHzGdkLDYHMEa96Rkt3jR9DqVp/DKa9g2rblomfFSmb4gLDtq/RiHN+3cVEb2IOBxVvTaEOKgni4538XyhhhxgsQNbmNUDON/HgnMpRI8yojEDTS5fq4McUNb7pmxBww89ZAlw37gnYrNfQTWwqSLm9EKWWESJ7xyksa3y8fAo4SYHY2rEDd5G/j4460+HFxY6XiMNV05h+V57p/zyY17aFygYexIPGRJ+2B5DmXgTtjscHbGvgzy4S723GyORoAy9bAvyiEuPO+cS4wehLcQ3wawfBL3+jgXe9KQuK+LJUMtkvHFzea4B8rl8Mqhe6ns/WPJV0YGo8hokIWZFVbrGIE9iZvu/hB7BLFe6HJm1V+UieCmtEOet05XSLrMcaJv4WLVkWRNS/RcTORpiCtLXMb2ebQ7rmkkbQ8PHrpsW7hUDUvVrYaLJQvX5rMNUE9J30MfxDpKtSPGTZVn9S8c4NNbbD3UYTjYZ748qv4qeJxJm+I9GrFpHKUrIokeS6Siwax2M/iy2p/V90gWMRks3bXwlDxjV0t3JX6s77HamBUmeVa9xnCxZK/Ki9VWhPcYL2XwlPT1XmPlSR6aXmv9RKpNS77NvGq8SBkxGSydt9KVqfcYnla9W5hVLU9kiPU9EqZduRyYxAE2N/1/Fy94hLSwMn2P5BG7TsTLhSF41tADt0hWmDZ20/iUvLUxJsdW3Gfr6mDJuqSxwlLlaTKk0vHIZG4+yQmQEHWXy6u5+T+XCPDlG/dXkYmGxKvnaj1XrGdVipcq8ll8W21F0mlYa/VnjaVS7U8bM1TtXyiDlifDtDE0w0ixZ+oHIfV/Wzph5ZbCTEtbtY9kfhYuqeeDxg/vx/ryMnVbb55WfAmL8cKwlHyWTsTmCNa4JyW7xYum11aeVtu09DM1XtL6AsE6dm3lscJIdKXhZrBjsYRE6BvPPFObgPwWE3FumEp6MDc4LA0eprx/Oazh3NF9+k47Zbci/inYG0AoFjYceV8Fd/x7813eOYmQt/KSrliG3Jfrh49zuRO/EuCUDO9Dnrvg2krimjNa1oS0sOvAP3crFqLsXEa0JzaJ5YlF58OL4zA89DiRK0tWuu/BGMKNuR6BxwINUzxJSTY1Ohv1xw3eeGIMsbwZyxzoOl4kyhJSqh64jlpwuQW4cANVnv5DYwrdgUncpJXLkPj2gWTJUIsQ+aJRTVyeb8OJUELUQRomLPlSMkheVa9FzMJ8wjDu08FTXEblEVgP4akBVv2FeRZ/Hw0d+h8sKSLxVC5u5iek4UKvEquOmJ5HpP803ytF8ktd+dZrMxhSuPSDRKPEYdh0uUghLo2EWXVr4VIsM/z/fWzU+yt4RrG9ksKNezU8GU8rL9W/nIx2eRw+Qn+GAZFL+kbn2Mv+LvK2TeKdhPZ+BfRJ+GQ/yqVLpGb3PSkZLN218BRZYlcLa8aP9T2cQGhtLNX+Yjyk7qVw0WRvFi9hO0rxksIzJWsxPFWepddWP2G16SIPzfhv8WLJYOm8lu4uLF/W9DOFZyhrWO+8r2G2OjwRGilP63us/uUojDFYJvt+einy2S9khUkc7fp+ISAcqXC5Kp9Xd2BswFPcdp84MePyIpIVRhxl/BKO68ryGfLAsvgy8FeBhyfvCVlhqfI0GVLppOwin0/C4CVvounRug+wkze/Vt0yP60erHGd9ayyeKkqn8Wn1lYEKw1rrf7Wgb5pYynrecTytDEDw6r0LxwzaHmmxtAsM/ZM5f2qZOmElmdbPBtZllbvKVys54MmQ6ovt+q2ap5V06Xks3RCmyNo4x7yaMlu8aLptZUnV5dobZPpLP20xktaX8A8NerU0tJS7IeXi8s3OOKSvlxAG/zh+sw1MDgI931og2LMLDlxYaMM95CRBFaYxLGu9MiRAYAVrxhmpePSEg0vepDQwlcvVakHlkVFkgd2sUxLhmLcsv8t+arIULbceuLRIk9i5xsjq/5i8XmPbtf/h0EsrcUx0nBJ1VEsr7L3OkI/kcLFkoX1pNWRhmcj5Wm88Gh5GiuHPPVUNArf0s5SdCmaIL/ZFu3P0l0LT4tPDWsrjdXGrDArz0bCNNlXBC9V8GxE9lRarZ9YEf21xoslg6XzWrq2qncNs6rlpfoeTT7e13Q+FWbl2cywMmM3S4YiLzyu9xd4sfUZGHX4gikkKyyMV095zUgX5tGs39ZzpeqzqioulkxaW4mlKVN/1liK/JNi44nUmKFK/5LKMyZjW96zdEIr18JMS1Pmfj31XsyvyvOhmEf4v0rdhumb/bvZ8lntNiV7jJeUXmt5Wm2TGFr6WRwvlekLYvWSNKzEEq3K9+QB/AA8I4pkhRXj+n9HwBFwBOpFgG8QuUY+3Ky53jw8viPgCDgC9SKwKvc9bTF243Jc8RIuYm2FFeP6/46HgNdfx6sT58gRWBEIVOkLVuvSpctZK4LZjlpmJ7iLcsf02HHTVlhHlcf5cgQcgZUHARpVwpPDVh7OnVNHwBFYmRFYlfuethi7cemTRlaYlsbvdxwEvP46Tl04J47AikSgSl/gHisrssa8bEfAEXAEHAFHwBFwBBwBR8ARcAQcAUfAEVipEYhuXtsWEnGtEo8LJXEDrSp7f9TD1y44xYiWpnpOOaknf4/bfAQOwOlCPCJrRVB762cZGXmcOU9fehKnIDg5Ao6AI+AIOAKOgCPgCDgCjoAj4Ah0TARaHbc8Gke43hqcBkS2f4yjYh/OT+ypKkYfbII7GEfknYkTZGJHKR+MSfVxwVHEVcuRdMfj5I3/xPFzTisPAhfgZCEaE1LEY7Woj1w3PXnHHbM9g9OYuKHRedAx3r8mP60mlR/DU/pZJo9646R0nscnnqgcaV5vWSsifkq+FcGTl+kIOAKOgCPgCDgCjoAj4Ag4Ao5AsxFoZVjhEYEDcYxlSLt17Zrdg/uN0G9w7PKpOHaZx/LFaBCMLjvDq8XJEUghMBrHOz6P45w/OWFCbT8cGgOFxuHoXOoSTydaTW6WuKb0s0QWdUdJ6fw5s2ZlP5w5s+58O0qClHwdhU/nwxFwBBwBR8ARcAQcAUfAEXAEHIFGEGhlWJHTKD67/vrL8u0LD4HxCxfW/tN75ckddqh5CzwweHD2pW7dlsW7bdCg7N8D48i9222XbbP22svCYz+4BIPeBwdvtFH2ifw3/2+MHdeFTujZM2NZ+37sY3Krriu9IO4GL0z/JXg3kM+QRmy2WXZKwjPgQHjU3IF09IQYu9VW2e8wgSef22MSTzkHFYxRzL+M/Iz3Lcj3aO6BcSfy6pd7bfD3xfDimAi8ifnhJT1weEzVmAEDarw+tv322deCdFXqiDymeOFRjeTvdmBET5Kf5d4iAyCL3CNeewXeJdQV1isxvRRyliHqRX/o1NUvv5wtwHHDXF62eufOtXpl+iOmT8++MmVK9gwMLzGqokuWDCxDqz+traR0XvSVOkt+Q7J4Ic4/3HTTml5Snw5Bm0pRSnctXeLxaj/v379Wf6zDs/v0qRWXks/KM6WfVfTM0l2LlxR2Hu4IOAKOgCPgCDgCjoAj4Ag4Ao4AEWhlWOHNGZiUfjafAO+dG07uy48ffgOT2ROefTbbe9Kk7H9xggW9B3gcEWlzLPdZD5NcoZ74vw72iLDoEZzAcyQmw3fCI2YqyuVvfuahHCGeRd4dk7hugbFFwlJXGnbGwgjyR+zdQaPRHSiHE/OdsAeL0P6YgD751lvyN3pl2RuCj+Ofey4bgrTk++/Y++KoHj2y93CSUGhQYgbbwtBC+acoE3wphMaIk2DU+c28edmXgelNr7ySrZ9j1hvpPwtvoVPgtfBbePz8N5a4lKGbBg6s4T5sxozsyjlzsjOQrgd4J1WpI6ZL8cIlOKfD6Hb/okU148ZjwIf0cxh4lgCfo1Gnf8O9n8LgIkYzGrSefeedbDj4HBAxTNUyKHxxIkx6Frgei6VjPL3pn/hsCqxIzyE/i6rokiWDVX9aW0np/HTIwDb2NPSrT25kE5ksXvoCg4Ogy2fAM4xt88zc0HEajC00fBQ/t8BAmNJdS5e+jeV2XaGr+8KQdfDUqdmUxYtrbKbks/JM6WcVPbN01+JFMPerI+AIOAKOgCPgCDgCjoAj4Ag4AhYCH7qFBLHGY1K2b/62mxP7x3KjCqNcPnduLSY9VV56993a7y1gqHgtn0jXbtT5xcn1QhhSumCSxt9FGg9jyGtY2vFEwvhRTMc9XfaHUeWmV1/NLoOBQWgi8vkKPFAez69cnnQXDAI7IP6ukLdInCCTOGm/D/EYn0ujFiD+7jBA0WCwI37fgDj0EDkOk+KtgckLiG/lSb6O6N49exj4Cn9F+cfB4EL5+TkMRpg9wB89NTQ+aSDiRPJ6eBhxEkrDw0Jgxwn3lXnd1YQpfKX4ZPQYL8RN6C/gccRLL9X+EhNOkmkQOx0TfU62+dkbXkO7Q4a7ka4Xwo+FUWUGcLoE6a6B9wPJ4uWFXOc2gK58BxP7/TCpvwHGmw1KGt3q1SVLhnEw1ln1Z7WVlM7TyEidXz+QK8ULsRsDnWKdPAWjzNdg9OsPw8wvYKy7HW26SP+EHh+NOJru0jho6dLGMNZ17tQpew/5PPfee8sZETX5UnkWeYz9r0fPWEekmO5yuZglX6xsv+cIOAKOgCPgCDgCjoAj4Ag4Ao5AEYGoYYXeIyfkS2O4v8rPggn5KOxn8QUYEybj7TQn+KS1MLlqS3oIhgd+6iXuFUNvhu0K3hCcZJ2Gt/k/fuGFbD8YWGTS2QIjwM6BJ4uUNw8TsGmQ9//geSH0LiaT/KwJ2f8Kg8EP4BXATVQ5Eea1J/J6FPetPJkX41kn4XCCLTQLRoWPgz+edKTxSV5J3OCVH9IETLIX5XVVuxH5SvHJJDFeQsMKT3sKid4hJPFk4G8aeVjWDjnONKqQpgdyWrzQKEai5wsNBpzArwUvqdcT8tUS4ateXbJkYJ5W/TW7raR4IT+TUNckaZtdoY/EeLVIG6X+WrpLowNJ0yUaw0ZgCdedWM7Fej0Xe8LcFjHg1DLJv1J5hnG13/XomeQR0105MUyTT9L61RFwBBwBR8ARcAQcAUfAEXAEHAELgahhhctXaJAYjrfZXP7CDW1J3FOBHgdDsWSFkzXuBfE5GBE65ZO2d2F44PGwpN6IGyMuC+FEuEg0WfDtd4y4rwS9YjhpfAlvxsvSnzDJGz17dnYH9qr4OmS5ARNxEt9in4sJIb0/PoW9ZI6aNq12/0/w8uAnRsTi/cCwEsbhshd6ZuwHbK5EeUNhrPk3yHIxflt5Mo/5MAgUDT9h3pvlk1ve4yT+GeBu5SlLnEah7GmBsULy1OrIylPSxniRMF4XQWdCksk990GZnxtEukGfKDMNVSTqFOu0T6AvFi+yjIjLpUZCRhKNWWX1guVwKRi9j/6Re7/UMsm/ivppycAkWv2l2grTWjrP8CKleCnGl//c++RQeEYVaSb04+hnnlF1V4x0mi6xn+AyIC7PomHxQiztCg0rMflSeWr6GfJej55JupjupniRtH51BBwBR8ARcAQcAUfAEXAEHAFHwEKgtYUjj80lLyfDa+VVTHqLk1ZOjj+Gyex3Cxu+ToThYyiMC6ThytHJXH5zQL7MKC+qdmHaIVhOEzPIHI5JIfdy2QNGnHroLUz0Z2LyfA48U07F/h800Ag9BPlGwvuGBqRH80m/hNV7fRlv67lcaC/IzuUfa8NwxP1VZJ8RKz96y3wecsmmrtwMl8s3hPYDVpykc+nSWjAmPAC+LSK+lIn7tvTMPUa4nEuOuC5TR1r+9fJC49s74GUYjFKk4/ONWLlMiDpFL4djoCfUpaMVfSnywr13uAeQ6OT3ICeXZt0RGMQ4ie6COlgP+YYTaubF/XSuwpKj/YFnjIr6acnA9Kn609oK01o6z/AipXgpxpf/Z774Yjbw8cdbfb40eXJm6W5Kl2T/pTmoywnQOxpFQorJl8qzin6WwSWmuyleQln8tyPgCDgCjoAj4Ag4Ao6AI+AIOAIaAlGPFUbmKUD7wFDAZUFCnMxyE9WbsTkq6cF8kr80n1CNgUfIpTBW8FSYZWGSOL9eDi+Dc/Bmm3FuRV6nYP8N0h/gRfIfKO8OnC7DU152nzgxm4uJd0jLT9vCEPv3GCz9+SLyvhYT6t2ffroW+RaUzX1KfoU9KcpQWDa9GsL/TM+9Tbh5KIlLFYgd93BIEb1aNoMhhUtbSDQSHJZ70PA/vWTuwlILEpcw0UMiRcPhhXAV8rsXJ8OQaNz4JvZ9IZWpo1rEyFeKF9GDMOlJzz+fXQGjGOubxPqXfWRGYinJ+fAcOrPeaPUAAEAASURBVAyGMxpLytL3sYHwr7B3juR5Ev4LnYx9V47DR+jP8Fa6CvvrjM732JG9WMRbQeLJNaaflgxa/XGyb7UVlqfp/HWou90CIyLl5DKwPaG7Fi/Ms3iYeVFPGadIlu5ausSNm0ehbqmzi/G5AAackDT5rDzL6Ge9ekaeNN21eAll8d+OgCPgCDgCjoAj4Ag4Ao6AI+AIaAh0amlpKTP30tJH7/OUoNdKGACiiT/CN+ldES5P4YSaE79wP5t64OGeHGtgSdJsGMSKVG8dNcoLPZFmRfggX/SsKRrRivzG/ssyoliYdo/H9fKEpCFPPaVFUe9bMjBRsf7UjJoQkOKlCUUsl4WlS1XqgZlbedarn8JsDJcyumvxInn71RFwBBwBR8ARcAQcAUfAEXAEHIEYAqrHSixy2XtuVCmL1PLxQqNKGCJ7a4T3yvx+1fCYqVpHVXnRjCqUo4pRhelkORB/lyWe1HRFcEJU2XSMZ8nAcK3+GNZsSvHS7PIsXapSD+TPyrOqflq4WLpr8dJsLD0/R8ARcAQcAUfAEXAEHAFHwBFYtRBYrUuXLmetWiKtOtJ0wjIgnizEI5NXNHUkXhrB4o/Y0yY8gaiRvDztyoHAqqK7KwfazqUj4Ag4Ao6AI+AIOAKOgCPw0UOgTZYCffRgdIkdAUfAEXAEHAFHwBFwBBwBR8ARcAQcAUfgo4iAeiqQgMH9E6rSAcrJK1Xza490PNVIjvTVyuMx0zvi9B6LLNmtMCtPD3MEHAFHwBFwBBwBR8ARcAQcAUfAEXAEHIGOhYC6x8plON2HJ9sIcRPVB954Q/6Wul6AE18m4xjl6djXoi1ozIAB2c7rr79c1r/HaT+n5icNLRdQ8s+FOLHoeJygc58h6yEbb5xtsfba2deBiUaW7FaYlp/fdwQcAUfAEXAEHAFHwBFwBBwBR8ARcAQcgY6HQNSwclafPtlncRTxgVOmZJMWL852hfFicQfY56MIX2ecePMQjnz+7xdeWBZUdSPNZRmU+HHOrFm1E01KRPUojoAj4Ag4Ao6AI+AIOAKOgCPgCDgCjoAjsAojEDWsfLV792wkjAc0qpAeCrw3BmAZzKgtt8y2hMfGfJw6cxaMGuNff70W79/XWy+7BF4qH8Nxy39euLB2T742wZKii+ANskOXLtni99/PRs+enY2ZN0+CsxN69swOhSfIyJdeym7FBqNl6U0YfGLGFItP5s1jd2985ZXscMhKWe6FDMfCU4VE+S+DjKvh92Xg8xevvlq7zyVAV/fvX/v9AAw6Z774Yu03vyzZrTALl9sHDcruQzn7YUkV12xdCl7GwiPHyRFwBBwBR8ARcAQcAUfAEXAEHAFHwBFwBDoGAq32WNl8zTVrnD3+1ltRDn+O5TdLcFrN0dOnZ3/DiTU/7ddv2Z4kI2A4eRbLfobPmJENWGed5dLfNHBgts5qq2XDEHYljrs9o2/frMcaayyL0x2/u8P40g1GmXroU/CmuRY8yKdPvieMxSfz74V4p/fund0Pw8URkOUxyCJEQ8ipM2dm/wPDz2nw3hHikqYTYHx5Gsub+sDIEpIluxVm4dIXdXHQRhtlZ2Bp0//C2HRmwEtYtv92BBwBR8ARcAQcAUfAEXAEHAFHwBFwBByBFYNAK8PKRrmxI3bEL40uNH7Qq+QRGCJOev75Gte7Y9nQhjCI9EL4+fDiYNgliCO0LYwsvRHG+zRoMO+F8Hah0UCIXi9XwCPjCcWgI/GKV3qszIDBQz7vwehj8Rmm/wvKHAE+aSC6Ht4rQuNgUCE/FyJsCbxr9u7WTYKyqW+/nb0G3kOyZLfCyuAyBt4yd8H4c+XcudnqnTtn/QsGnZAP/+0IOAKOgCPgCDgCjoAj4Ag4Ao6AI+AIOALti0Ar95B5udGgK7xLikSvEtKUfIkQf9NA0gJjCZf4kGjgIE2HAUKIRhXSljAK8EOaAK+PRUuW1H7zi8uNwiVHywISP+g9QkNPSLvkvMT4DOPdDeNJjKYFvM98991sJ+T3p8LSpjCdJbsVVgaXSZCPtCDHqmudHj0hn/7bEXAEHAFHwBFwBBwBR8ARcAQcAUfAEXAEmotAK8PKP2BIoJfGLlgO81Q+qZciZXK/OYwj83PPkm4wtszHpH9abmzh8czc80SW5DCtGGtGwSMlNFpIvrxyTxSetENDQmzPlDBu6rfFZ5h2kbIhL5fgCHEPlMmBIUnuh1dLdiusDC5hOf7bEXAEHAFHwBFwBBwBR8ARcAQcAUfAEXAEOhYCrZYCkb1x2CD1W9hMdki+T8pu2Mfk4/DaoDfKOzBGDOvRoybF8YhD4lIaGkPovXJMS0tt89qjcRXifi3/RLqTevXKeuZeLzx1aCsYUoS4iexobBi7xwYbyK3KV4vPMpnui81iaSAaiuOm14XnzoPB5r2x9JbsVlgZXGLl+T1HwBFwBBwBR8ARcAQcAUfAEXAEHAFHwBHoGAi08lghW2dhnxRuIjt2m22WcfmNZ56p/ea+KlfAADJ9p51q/y+HFwo3rCVxSc75OBXoMBhJZgTLaRg2HOmvwiaz9w4Zwr81A80381N4ajfyr6Xhn8Tv97GfikYWn5JmqZL+PXjs3DV4cC3aLdhv5dV8edR14H+3wPBDDGbBw2fPp582ZW8El/eF2fyqS1yI6H8dAUfAEXAEHAFHwBFwBBwBR8ARcAQcAUegzRHo1NLSYs7VN8OyGC4PKlJveHTMgpdKjOiVMjc3RhTDuU/LGp06ZbOVtMX4jf63+Gw071h6S3YrrL1xifHu9xwBR8ARcAQcAUfAEXAEHAFHwBFwBBwBR6A+BJKGlfqy89iOgCPgCDgCjoAj4Ag4Ao6AI+AIOAKOgCPgCHx0EIjusfLREd8ldQQcAUfAEXAEHAFHwBFwBBwBR8ARcAQcAUegOgJuWKmOnad0BBwBR8ARcAQcAUfAEXAEHAFHwBFwBByBjzgCblgxFIAnA4X0SRxBfdjGG9c+LfnpRmE4fw/EsdE7rrtu8XaH/X8ATkDSyArT0rTn/ZUN67bGZp9u3TLu1dMW1JZYt7eetXV5Vj9hhbVFvUmebVl/UoZfm4NAW+tno1y6LjWKoKd3BBwBR8ARcAQcgVURgVaGlQdwGs7kHXdcJuvhMCTw9JsT86OVlwWswj8u22KLmsw8GYiyfwbHTZP6YCPfwTCanNm373JHRYdQHAK8TsSx0s2ig2H4OC44urpZ+Uo+F+AUJw6UY2SFxeK3971mY12V/7auoyJfWnkjUZfb5UekF9M0+r8tsW5vPWvr8qx+wgprtI6s9G1Zf1a5xTBNd4vxmvV/ZSyvrfWzUWw7ii41KoendwQcAUfAEXAEHAFHoJkItDKs8MSe1Tt3zg7MPRkO3GijWnmr4/5Hgc7q0yf7bNeu2YFTpmQDH388G4Zjot/6179qov/mtdeyU//xj2wJjmPW6JxZs7IfzpypBdd9fxAMOTvDU8apNQLNxrp1CeXutHcdtXd5RKGjYF2uRlZsLKufsMLakuuOUn/trburenltqTNa3h1FlzT+/L4j4Ag4Ao6AI+AIOAIrAoHVY4X+7c03s/1hWLl/0aJsS3gzzHj77WXRNsHymIs22yzboUuXbDEMDKNnz87GzJtXC+fSmbPhzfGJ3BBwCwwRZ774YjLsx717ZwfAgLPuaqtlr+IY5vNgnLhj4cJaun9HXqPgQdIVYX9csKCW95HTp2cvIp7FCxOfAC+bQ+FBMvKll7JbkbYMfbV792wkyp+0eHEt+kNvvFEmWc3r4+r+/WtxHwBuIjdvWHzePmhQdh/i7we8aeW6FHiOBW5cMnBJLjfzeHjIEF6y/SZPzuYtWVL7rX2l8LwEng0fW3317M85xpIPsdbCGGf8tttmN77ySnY4MNpy7bWze19/PTv22WdN+arqhPAUu9LDRsPaKi+Wl9zT6oHhA1DeqC23rMk8H8eIn/XCC9l4yN5WdXQbdOInaDdsh6R7t9suOx44d0WdpXTicxtskJ2D9hnqEvPQZGAYSatbC+ufQj+LRr9Dpk5Nts2Unn3AUetvS6+t+qtaHjn4FvqQo6Dv3bDEahaOnT9uxozs2XfeySxeWnNe7o7VTzAHrY6s3K36WxXaiiZ7mbap4am1vyl4DmqYpcqz6raqfmq8EBOrPIbHZP89njvfhrflUDxjhEagL2GfNxLPJUuXGF9rKylepCy/OgKOgCPgCDgCjoAjsDIj0MpjhcL8BRNuGk6+hgnFPZj0L1m6dJmMNw0cmK0DI8cwTDCunDMnOwOGlB75vg7f3mSTmgFkX3h7HIwJ1pTcOMHEVtgbMBScgInj3pMmZf8LA8hoTGI3wiSSxIHdc5jIDEd5W2GZQ08sx1kbHjUkixeGc7+J7jD2dMvz4j2LNkfepMffesuKFg2bDh4pw9P//GfWp7C0xuKzL8o8CEalM+AJQ9nPhMcM6RFMqmlAuhMT+KkY0PM3PymjCtOm8OTEkHgOKCwbIdZaGPPtBSxPhxGMBrcjwMtj+cTfks+qdyuM5WlkYV01T60eyMPPBwyotYGjITONHT/t1y/bGDrVVnVEPVwv13GWT51nmytT3hexz0pRlywZGEbS6tbC+kIYLEUvn0SbYbukwZNk6URKz2oZRL4svbbqr2p5XAZ5Eiaav4Hh+Mvom26CUXF91APJ4iXCeqlbFmbMQKsjK3Or/laFtqLJXqataHhq7Y9laZilyrPqtqp+aryQT6s8hsdkvwPPmv4wmO+EZ7/Q/ng2sW2TLF2y2kqKFynLr46AI+AIOAKOgCPgCKzMCEQNK29j6cuD8NQ4DoaS38+fv0y+bTER741JHgeRHJi9gXgL8TaLhgHSxjBkdMaSoffgycK3e3R7F7LCLp87t5bnAAzqXsJbYdIW+E3jSi+Udw48BFjmZXhrJpTihfHoVXAF0jxR0lCyUW4golxViAaQ14BHSGX4HPPqq9ldMFZcCRy4DKt/bpihkWMhjE6L8OFvfsqQhueGOZ7nwxuCeF6CibGQFSZxeP0LMB2BdDQwXI+JZko+q96tsLDM2O8Y1ozXSJ6xeuAki8Y5ej0Rs5Oef77Gzu5YLkZqdh3VMjW+UuVVkUGKK9at3NewfglGlGegky3AZw8YdL4JwyLJ0omyeiZlh1dNryVOTPZGyjsChuWH0Q9eBgMycb8J7fRJGE5JKV6Ep7JXC7MwD62OwjjF31r9fdTbCnGqF08LM61tWnXbiH5qvFjlhboRk30inpVfyZcB88plr3w2CWm6pLWVsrxI/n51BBwBR8ARcAQcAUdgZUUguhSIwvwab2k3xwSfy1ROzjdjpVGFxOVB/JAmYKLBiT+JE/URWGZyJzZ9pcHlXCypuS1fgmOFcanPF7CEYTI8XBbkea0FA832+ZszTt5I4ZKkFC+Mz2U8ZZfyMP683CjCZUfNojJ8TsonayI7l3w0Qhqe9EIizcjxnA5DkJAVJnF4vRuGlZBS8ln1boWFZdTzu5E8Y/UgmhB6X1G3aUxohLQ6aiRPpm1EhmLdluGFBtar4cFzMdr6X2F4Ilk6UVbPYmWnMIvJ3jfvp2I6HysjvNcTsv0uMCyHYSlewrhlfluYhemr1FGYPvz9UW8rxKJePKtgZtVtI+1B48UqL6z/mOzj8Nw/DV6TP8bLDC5Pvb3kElqtrZTlJeTLfzsCjoAj4Ag4Ao6AI7AyIqDO4LkEiJ+QxPAwCl4g04JJucShlwqXAXFN9Q823TS7EEtLxLCihXGd+N4f+1g2FK72nPxwHTf3iegEw4pMlPrhHt8G0tAjlOKF8bivBD1fmA/frqfoH/CW4Ru6XbDXyFO5sSOWhkuj1gqWasTiyL0yfErc2JWLsOgFVJYsPKflS7MYh3j0wVXICpM4vC4qePOk5NPqnXlZYQyvQs3OU4xd1L35uecT99uYnxsAyWMz64j5vQv94n5DpN5BHdVu4Kve8srIwLyLdSvlWdcbsEyKxsvr4L0kZOkEdY8U00FJH7taeh2LL/fK6rXED6+s49gpS2V5sfqJYpiFWchTlToK04e/V4W2EsoT+51qKzE8rfaXwixWnlW3VdsDZdV4scoLMYrJPg6GxHPxcmQPeOR9CqfhHTVtWphE/a21lTK8DO/RI9sUL224h1pZ71KVEQ9wBBwBR8ARcAQcAUdgBSEQXQqk8cK9R/6JiTX3HeiZL5vhCTpbwXhB2hvLAUhzMGmfgLgcoApZYYzDySo3VP1u7h3Dey/DM4Cb2f4XjDQsg5vRCqV4YTxussr9WvaAoaYsjcPyJW7CNyTff2Q3DC4/Hqw5Zz4sm5vtlqEyfFr5TISBZwhOBopNsK10MTxpTKG3xTE4vplYHx0c42yFWeWk5LPq3QqzyrTCmp0njX3vQOeHYfBPOj7XQdlYlveaWUeS31AYG0nDgzqq3cBXveWVkUHyruc6EobTLjAAyRIgSWvpRFU9k7xjei1hsWsj5fFt/efRd+yV9x/box3KMj2WleLF6ieKYRZmMbmacW9VaCspHOptK8yPabT2l8IsVp5Vt43op8aLVV4KL4Y/hBcqI+FFymf9o7kxOZVOaytleOHxzdw0nsuGnBwBR8ARcAQcAUfAEVhZEVA9VooCiYlkOI4fvgqu//fmp9Rw0ikTq6Mw+eTpKfT64IlBF+QnAjEvLYwDy9/CmHEzNsUlPZh7ySzNjTI/wqauzPP/4aSUe/JlKO/lYRYvtczyL+E9vKf9Pgs8c7PbsdtssyzKNyBzSJfDY4cnr0zfaafsVvB+Cni8DpjsFhhwGMZTRPZ8+uksxWfx8OaQ3z/gDeJ/YJJ9B07k4f4ru0+cmM3NlyyFPMnvFJ7cK+R8vJE8DAPZcGkV01thkr/Ui/zn1ZJPq3ems8IYrpGFddU8WZZWD9xX5QroIOuUxPqnB5VQs+toDLw/LsXEhuUtaw9SGK5WeVVlYPaxurWw3h36vj7aiuDCPLjJK7GxdKKMnjGvkFJ6zbia7FXKY34Xo543g6cSNysmsV87DG/waaiy+qxaZHzF+gkrzMJM0sXqSMJiV6v+VoW2EpM5vGe1FcaL4Wm1vxRmWnlW3VbVT4sXqzzBJyY7w3ia3654YfIr7CkUkqVLWlth+jK8MF743ON/J0fAEXAEHAFHwBFwBFYmBDq1tLRUGs/wxJ01sERlNgwjRRI3/+J9/rfCYvHDe7vDe+RSTHB3fOqp8Hbt9B+Nl+Ui1vlnM7gnc3lQs8jCrFlllM2HHkeagcYKs/K35LPq3QqzyrPC2iJPeg3Niui7xUcjYdy8+bVgyVEjeUna9pbB0omqeiay1HttpLxm9wUW7xZmVrqqYatCW6kqu5XOan9VMbPqtqp+WrxY5VmyNxKmtZUVwUsjcnhaR8ARcAQcAUfAEXAE6kGgsmGlnkIaiXsGjvflZq6vY4LJzfRuhQfHOdgo08kRcAQcAUfAEXAEHAFHwBFwBBwBR8ARcAQcgRWNQIc3rHDzyC9i75bV4B3z/2BUiW2au6JB9PIdAUfAEXAEHAFHwBFwBBwBR8ARcAQcAUfgo4lAhzesfDSrxaV2BBwBR8ARcAQcAUfAEXAEHAFHwBFwBByBlQGB5KlAXL8d0idxFPFh2MWfn5b8ZKAwnL95ZPKOOEFjZaEDsMRIIytMS9NR7m+IJVT1Ek8L4t4CzaS2yLMMfzz2O0ZV5auCJ8uvmi7Gu99zBBwBR8ARcAQcAUfAEXAEHAFHwBHoWAioM+jLcCrJPvmRr2SZO/s/8MYbWR9s6DoYRpP9cdzwHGzsyiORi8TjE7fA8chfL5ymU4xX9v/BMHxsCCPONS+/XDZJXfEuwCk5k3HE5vTgpBfJwAqTOB3teud222W9UU+kmW+/nV2Ik4DuyU9b6gVjA48M/gowZX0e9+yzy9h/cocdsnVxfC6JJxpdhL1sxucnMS2LFPnRaJ480vq6AQOyX+MUijODk6QiRdVuWeXRiHNt//7Zdrlhbzbk+DxOZiLtiVNsfow9e3oCGx4lej306aq5c2th1ldVPK10Vnke5gg4Ao6AI+AIOAKOgCPgCDgCjoAjsPIgEPVYOatPn+yzOG7xwClTsoGPP54Ng4HkLUxESb/BUYyn4nhhHj2qETeX/eHMmVpw3fcHYZK8MzxlnMohcOfChdmef/979skJE2pHKl+Ao6GFxm29dUY8X4FB7AMTioRk2emoV9Y3P3+F0eW8IN2HsVr/ajTPi2DYsvSpWKJV3oXgeX0Yh74IYwrlOA0yCZ0JvX70zTdr93kU+Hd79SrlnVMVTyud8ORXR8ARcAQcAUfAEXAEHAFHwBFwBByBlRuBqMfKV7t3z0bCODJp8eKadA9hkl2GuAToangLkB6Ah0TofcBlGRdh0rtDly7ZYhhlRs+enY2ZN68W9/ZBg7L7EJ+n/tDScynCxsKAw2VHl8BzpmvuRfHwkCG1+PtNnpzNSxxDS8+EA+BVQw+MV3FE7nmQ5w4YHEj/znwxmad3w5/ze7WARBjjjN922+zGV17JDgdGW8Ir5154dBwLrw9LPi6nOrtv3+wTuXHoFsgm2FhhLO8EeJccCg+gkfA6uXXBAt5K0gjEFboJXiB7wfOoH+rmWXjkHDF9evYcrtf069fKsCL4MO3dkOsglNsDnkI0wljUSJ4/Qj3R2NEPWJYlq7zd4JXCcDkm+6/IW6g76uFv+f9H8is9sFJHGlfF00onPPnVEXAEHAFHwBFwBBwBR8ARcAQcAUdg5UaglWFl83wJyeNvvVW3ZFxKcwKMDMfBGNAHE/mQbho4MHsDxpBhM2ZkW2MSfQYMDX/B5J2T9r4o8yAYQU6Fl8unsCyEngU0rHDyeyQmySdusknWC3EYTkoZVRiHZZEX5n8I8h695ZbZrvDg4CR6BAw8NDJci2UgP0JZIVlhjMdlKKfDGHAzDBZnwethME4tIlnyfRv80zi0LzyA1sTpRrJMhemsMIZ3h2GDBoFuFfc9+Qw8j96BtxHlJdGoYtFeMEzQ+MX6uCevHys+w6rmuRX0gHXDpTo3Qj/KklbetnldcJnTzciPy6B+huU+v8dpUqQxMIidDC+VjYHpFyDndBgOn8QSsHqoXjwl72I6ue9XR8ARcAQcAUfAEXAEHAFHwBFwBByBlRuBVkuBNsKkk/RGvvSnXvGmYjL7WsHDgRNe7vlBQwkNE8x7IeJw8i40BoaKu+C1ciWMHat37pz1zw0zNAgshDFkET78LQYCSaddL0c+LG8AJu8vYZ8NEvd94UaiNNKcD6MIwy8JvDussLAcGoTojUDvh+sxWU/Jx4l8ZxhU3oOnzhTgw+VUQlYY43CPkyvgwfNEBUMX+ToWRq4zXnhBikteadii59D6wGl8wZsnmViJoOV5KbyRrpgzJ5uPum0G0QOJxD2Avjp1as1DaQQ8k4Tuh+cV4xCT7WA8+kNucJHw1LUKnsyzaroUPx7uCDgCjoAj4Ag4Ao6AI+AIOAKOgCOw4hFoZViZlxtFZPlNM1iUjVS3hLFkr27dap8J8BSgsURoUu45sCC/1zWfJEt4vddRmLRP3nHHbFiPHtmn4bVBWgvGDXpjkGbknhvTYegQssIkDq9cJhNSSj4ab1ZH2XcOHpw9iuVMQ4NNga0wlsFlWD+FkUiWZYXlWr+5xOiX8Nr4JQxWZZcQMT964Xxq4sTsNHgHceNeGsIapVieB8J4Q08lGpp2QZ10gTFtU/zncrKqJPp0FYw19EQZhSv3bmFZJG5qyyVVOz71VHYQvId+CM8jLgsrQ1XxrJquDE8exxFwBBwBR8ARcAQcAUfAEXAEHAFHYMUj0GopEPem4GR0F0w4nzKWSSxZujRbC5PhMiTGmlHwvJgWGDLKpGWcpfjQ46MscTK7N4wXQydNqhlQOFn/HJZ+dEIe0/J9YxjnJey90icwHFhhYdmLCt48KfloPOAyIO7D8oNNN824wept+X4pVhjLHADe6WlDwxP5LUtjsUnt/fAA+gkMJVXod/DmoGGFhgdZSjMcRioaP/4I3qt40IR5dsHSKO61QwMYiR4y9N7h0qgTn3++dq/e8mQvmLeRrxD1dG3oKfWZJEaxp6EHXCK1M4w6su+KVV5VPKumE/796gg4Ao6AI+AIOAKOgCPgCDgCjoAj0LERiFpGxmGpyrewXGJIvmcFj8P9eO7pIeJwDxZuDluGGJfH256E/S165kuNeOoQ99goQxNhVBiC5R29AyNImXTdUBaXfvD0FyEaJ7gM6ZiWllrY0bgKWWESJ3ZNybc3vHRIc1D2BGDxLib7QlYY43CTXO4PswcMQ2WJx/y+A+PC5fDY4J45sm+OpN8M9+ghsh6w4W8SvYn2zz07WoDbudgDh8R9SIR4jDY3NubSliLVm+eN8KTZGXveyGcGjE/c1FeMKsy/3vJ49PcL8EQaltct5VkLBhxuystNbGkwPBLGIdI+qBOG8eQeIa28Kngyz1Q6KdevjoAj4Ag4Ao6AI+AIOAKOgCPgCDgCKy8CrTxWKAqXbnCz1LHbbLNMsm/gyOWQLof3yTnwvJi+007ZrZgQn4Jjba/DSTM8lUWIYbPgAbMnNicdjvRXIfze/GQfegt8E5vLCn3oY/DBnQ9ND1ltL4z/gAfKHTiRh/uv7I6lKnPzJUuSPrzSQPJb8MQNTEkPwnODtDQ3aHA5yPnwxjgMRgJO6EOywiSe5CP/ebXkOwqT+VEwjnBiTy8NHvUrZIVJHF5DPML7xd80VsnSpNuAlxDrj3uMnAyPkOPwEfozjDBcOkNPDhpTZE+S2ag38kmPmiIVeWlGnu8Hxqaq5Y2GHN+Dtws3En5k++1rxjyePiWn/pwNebgR8hGoD+rfzdgfhxsuFymUryqePG3Kqodimf7fEXAEHAFHwBFwBBwBR8ARcAQcAUdg5USgU0tLSziPbCUFPRHk6NpWgRVu8JSbNbAkZ3Ydy1oqFFMqCb1nNAONFWZlbskny49i6a2wWPy2ukdvFSqELKtpRjltkWeKL+4No+kY+aF3i5Mj4Ag4Ao6AI+AIOAKOgCPgCDgCjoAj0CgCScNKowV4ekfAEXAEHAFHwBFwBBwBR8ARcAQcAUfAEXAEVlUEonusrKrCulyOgCPgCDgCjoAj4Ag4Ao6AI+AIOAKOgCPgCDQTATesNBNNz8sRcAQcAUfAEXAEHAFHwBFwBBwBR8ARcAQ+UggkDSvc+6MsfRJH2h6Gk2P44T4WIVlhYbyV/TePdt4RJxhZdEB++o4VJxampeMxzjHaCBsQN4uGYvPgjY38ePpSmfI0GTQ+NzTKLFOeli+PkSYvPQp6qsVvy/ta/Vllci8fjTRcytaRlu/KcN/ChfxXqXcNT+aXKo9x2ovasu/RZKiiu8xLq4cY1qm+R+OtGfc1PpuRd3vkEcMzLHdll4+yWDJYYSEO9fyuqvP1lNER45bpX5rBN0/s60j9ajNk6uh5NFq39Y7rOjoeKf4aGUuldLtK/2LlGRtDN+OZmupbNZ1IpUth36zwGC7NylvLx6rbFY1LM3RCk5v3Ldm1dJZea3mWbZsx/UyNlzQ+i/fVmfdlW2yR7YPJtBBPvXkAp8pY1Acb3Q6GUWF/HMM8B6fKhBuEWmFWnitbGI/s3QIn83y9cIpSKMcFOJFoMo6Qjp1IE8Yr/g7TUXmu7d8/2y434vAUn8/j9CXSnjiZ6ce9e2c9UR885vr6l1/Orpo7d7nseIT2dQMGZL/GscdnBqcULRcp+HMhToA6Hqc43RfRgSd32CFbF0cXk3gK1EWzZmXjccpQjEIZYuFyj0cVy6k6M3Ey0YU4yeme/HSnMvJJPrHrbYMG1Y7anoqjpJ9B3mU36rUwi4U9ihOweOS30FM4avvQadNqf636k/ix65cx6Pz+pptmvVC3PGXq+zgF6Y4cawsXrY5o8PxFfnpWWN6PZs7Mbpk/P7xV6XcMF8moapikD68WLhIvVu88Zpynh22IeiKe3wWed5bAs0x5Um545abKx+Mo+6/AqMf+9LjgZLQwXpXfbdn3hPxYumvhKXnE6sHSXavvsdqYFSa8WNcYn1Z8S/ZGebHaSownC0+JX698ki52bUu9jpUn9ywZrDBJH14tGSydt9K1d703Wl6IR/F3mf6lmKbK/5EYH33nueeyu/LnfTGPg9F3sr++BuOaIllhxbjN/M/DDnji5aFTp2ZPYWwXkhUWxpPfK0KGRuu27LhOZOwo1zJYF+tPG0tRJqv9WWOGqv2Llac1hraeqWXqpkzfGtOJWDoLszK81PtstHApU169cay6lbxiuEhYe101nUjNEaxxTxnZY/JZem3labXNYjmhfpYZLzF9sS8o5in/o4aVs/r0yT7btWt24JQp2SRMPnfFJHwxJugp+g2OOOaHRyMXyQorxl2Z/58Do0LKytYM+dgI1ocx44swpvDUpl0wQRY6E/X3ECZtpyKMD45zMVAZO2/esmOHGe8i3ONEshl0Oo7avgPHC5POw5HN54G38RMmNJT1ncjvlzD6/BM8ng15LkCen8Ax26Qy8mmFs276w/D1ub//PZtT58lUFmZa2CUwCN2+YEGNnbcDvK3603jnfR5x/ivgMhLHSNN4dgkMoHc8+WQtiYWLVkePvPlmtgewENoN7f5M1KEYseR+1auGC/OrGhbjxcKF8bV6H41j0J+HcW3o5MkZB/SjgeegEnimyovxyHvjtt46exUnUtGY94EpUotZ//2O0PdYeFIirR4s3U0hobUxprPCrHw1Pq00Kdmr8sIyrbYS4ymFZxX5YuXIvbbUaymjeLVksMKK+ch/Swarv7bSMe/2rPdGyxMsYtf26l9iZYf3BuFlEl+6xAwrVliYR7N/Hwdj+Qw8R4pGFZZjhcX4WBEydJS6jeHRlvfKYF2sP20sJXxq7d0aM1TtX6w8rTG08FrlWqVvZTlWOg2zMvzV+2xsK1w0Xq26TeGi5dme91NzBGvck5Jdk8PSayvPVNvUykuNlyRdsS+Q+8Vr1LDy1e7ds5EwENCoQuIkXYiTuQPgkUIPhVcxMT0P8WRSLXHqvdJF6CJMGHfo0iVbjMnnaEwax8AQIDR+222zG195JTscfG2JSfG9eKN8bP6m9wQ80A6Fl8hITGBvzSewkk67WjLQmjkBngVfgNcHTUls8L/MebHC6Ep5NTxISA/gTUvoBUIXr0swaaOl7c+5AaIWMfFlpdsN/B0xffqyo7D/igmyUHfg+bf8PxsFiR5Dry1ZUvv9I9Tho7jfD1iGlKoH6sVlmIhyQngZ6ugXmOCTwvq/G3VzEOqDS2w4ebRkqCVWvkYAd6GbUM5eMNb1A8bPvvNOZslnyXA7PFU2Bl+kWzDBJX0Pb8YeRX2nSMOM6aywBcDgpYgBx6o/jRcuMWO7uzHH/WfwQjqiR4+ahxK9LCxcrDoK+aNB9TG09/m5rmi8yP1vof0dBb2gZw69lY6bMaNWRwy3cKkSptVtChet3p+DLtHINgx92ALIuzn0a/XOnbMvoW3RC0jDk23Jqgerf2GbZbnX9OsXNaxo/dkA8DYKbY/933zo1FkvvLDMK6wt+h5LBk13uVTQwlOrB7Y/DWvps7S+h3qmtbFUGMNjZPGp4ZKSneVYfMb4kHtaW9F4YToLT0s+KTN2tcpL6bXWT2htOlZ+eM+SwQpjHhovlgyazjM/Kx3DtXq38GQ6rd5TmFUtT+t7rP6FS8XPhiH+E/mLnVvwYk3GPlYY5bPoc+iDObjmWvVLMdYYi3z55pQvErrm3rEPw0OEtB+M4hzLaGHz0LdbY7cUnxoutcLzr4MwJj4Z3o4xKoZp5VnyUQYtXaxMuXcvxrMnYIwzOR/Lh/fpgfyvpUvVcSvb0X0Yy+6Hl3NhPTAPa1ynPatSvLyBl7eaLgnfsavFp9ZWUliH5RTrzxpLMV2s/aXGKFX6l1Se1hiafFrPVIbHyOpbLZ2w0rGcGGax8ov3qvSRKVy050Ox7PC/1ZdbdWvhYuUZll38nUpnyafphDZHSI17LNnJd4wXOgxY42srT6ttWvppjZdCfIt9QRgW/m5lWNkckwbS48pk8w108CegQ+ak+RA8TGit2hXeCTIADjMv+/smuOIz32GYlG2NB+QZeFD/BRMbWaJBV9vTYQy4GRPKs7BsZfA66yzLmlZQgtINg/qyZMnANyF8cJ+CpRA740H+3+BFDCtWGJf1EBdatPpgEhTSCAwQaBC4FhPhH8H7Qug0LOn4GialReISlYOwZERLt20uP5cTcBkDl8r8DG6xv8+XboyBEerkXr1qRgQaiKYjvydz99StgC/rjcuGbiwsAUnVAxXzVOBCA9hpkEMMK+R/L5TD+1S8e4K602Qoymz9/wwm++/goUsMSZZ8lgysn4HAjjr7TejaOzDiSZ5W+RZmVhjzPA8GNX64VOu/MPBiPaTqT+NlUe41th70k14P6+c6L/sZWbgwT62OwvJ2Rz2ehIFYGTocBrSToGfXzJmT/RFGzU/Bs42dIsnCpWqYVrcpXLR6H5K3o2fRfo5tack4sNsAn03zPlDDk66PJK0erP6FRhWLtP7s51i2txB95NEwzPwncP8pDDOfRr/LAXdb9D2aDC3oa0mxvoeDWJKGp1YPTKNhzTCS1ffE2tgHqeLtT8K0q8WnhktKdpZl8anxYrUVjRc+iy08Lfk0PnjfKs/Sa6uf0Nq0PPs1fiwZrDCLF02GVH+tpRPetXq38LTqPYVZlfLIq9b3WP3LtzfZpDZe2hfezWt26rRsaTLz08JS4x6m/SKWvHKswWcK3ybSsMKXREei/zsRZXIpLMNJ7APnGWGMY43dND6ZjqTh8kFoln0X/NAwH1v+HAvTyrPkY1laOuEjdn0PhhP2naFhhfrMZeJT8Nwjsb3Exq19EYfjuWI9MI01rtOeVSlemCfH3jFdYpkaWXxqbSWFtZQVqz+GWWOpWPuzxihV+xcrT+FfrsUxNO9bz1RJV7xafaulE1Y6lhHDrFh28X8jfaTkVcTFej5ImthV68ut8RLzsXDR8kzNta10KfnK6EQ4R7DGPSm91nix9DqVJzHV2qaln9Z4iXmStL7gg9Dlv1tZIzbK3+hzkhGjy/O9Or6EB99LmCySuKfIa7lnRCyNdY9A8aF3PTw5aEBhuQsxaWSHfmWwLwgNLWJpFG8M5suH2WuI/4RiCIqVnZJhHDxUmC8/3Ih3D0zsZb2vFTYVDyryIhNels0NkjgIOBYT+RmYVNED5prcs+UXMIDIMpGQTy5/sdLR84XE/Wy+ijW9XL4xApN3MazcD48DevEcCyMPLX8X4o280KV443MFJsJFj4Qy9RDKfiQMQntDB/6Ue+BwALQX/lP28fk9S4YdwPuu4LtI7BTooSJEvijHKcHbIE2+lAwzoa//hsEfSbyx+DvFi4YZ05pheNPGAU1v6DUNEKyjvSZNqnkuMW2s/lK80FvhVBjkfg5D2rcwoCN1zfVBw6UWCV+xOpIwXofB+4XLw6ROU7wcAR14GLp2GfSJFBqpTFwUHWQeWrpU3Vq4aPW+Qd7XbYA28h1guR8mBzfAgLFBAk9OpKzyUv0L5dQo1p/R2E3jMd0cOSDkZ294cO2O9jMuN6Y2s+8hb5oMa+XtJ6a7KTy1emB5Kd3V+h6+zY61MeaphaX02uJTw2VteDqRNF2qyovWHliWxgufxRaemnwpXKzyyI9GWj9htWn2K9bzQZOBPFhhGi8a77yfet5aabV6ZxoLT63eLcw4XqpaHvmJ9T28T4r1L7xPD9DO6BPew3PjOXhmymTdCrPGPUxHGoMxAMdcXFrzNTyX+sOYzfETnzE0MHdBnx0+b5jGCmN42IeE4zpLBqazcGE4n5v03I5RLMwqz5LBShcrm/c4VqZnww34/dj229f29OLLyxeAo5BWtwyP1QONSNqY1npWpXipIp/IEONzTfTJ1tzCwlryjdUfw7SxlNb+rDFD1f7FylP455V9RnEMzfthe5Dx/Mtow1X6XWusz7KsPlnDLPU8qtpHkh9SDBft+ZDiRevLrfESebBw0fLsjb7WqiMtHccFmnzkhRTTCZkPMLw4R7DGfCm9tnjRxtepPMljrG2m9NMaLzFPktYXfBC6/Hcrw8o8TNxI4m65fPQsG4VJEb0gOJhlB0sS5SnGLfOfHR+Jb4HlTfAEPEwX5XlLHlxiEiMuUwqXKsXiFO+lZOCDRojLGz4OTwwxrFhhkia80ouDxEEBaXqQ91xgvVo+UakF5l/vouFY6QSbqzChpQcEP9/AG/cD4cHyW0y0uKntBfDsoUfJduhUb9lmm5ohgRN8Wvc5+NkFfHXBg4dv5+nqW6YepgW8s0PYCXlIo6MnET/caZmbAnFp0tYomxSTnZbcnXNscrFrF9E//qHr6y/hVcO9VsJlXpp8bDyklC7VIgVfFi/EVMNsWwxYtDC+5eNbNhLbCg1ZY7baqsabVX9cCmfhQvddbn7Kt0LcB4VGSMFMw0UMkbE6mh0sU6L31B+CDWstXChXT9TP74L4vEeqipmFZ0o/LVw+4Kr19+t5X0fvDw72OdBaC23i9bzvsfC0ykv1L605+fBOrD/jG1PSFOiREOtd3obIveLV6kOsvof5aDJYuktPFZKGZy1Q+bKwZhKt79HaGAedWlhKrxUWa7c1XFK6VIUXqx2xf9F4IaMpPGMypnCxyovlJ/e0fsJq0yleJO96rxovVj6WzvN5a5FW79RPDU+r3i3MyEeV8oT/WN8jYdqVL4r4wuDOwYNrz6JzYWC4LV+SrYWl+h6WNQljGpKMMeXlQe1mxS9t7KbxKcVYuHwNL7D4ClJwlzS8amGp8sI8wt9V0nEc9gO8iOHmjHzpxSvbAJeCl6FYPfTNPTZj4zrrWZXipYp8IkOMTxpqSPWOByVPrf4Yro2lRA+KYz62d23M0Ej/ouUpMmhjaIbHnqlcqWCNPyXf4tUaaxTjFv9rmFnPgEb6SJav4aI9HyxemJ/WlzdSt1qeGybmTlo68qnJxzBSTCdkjsfw4hzBGvekZLd40fQ6lSd5jLVNay7KNKnxktUXMH2RWhlWuBEq31pzM9TiRlxURr4pHYq37uxUOSHnWthOBePAErgfcoISo2KYTApH4c1jWKnFtOIeVLzP9Zz0mGHHGq4DK8aT/2Vk2Cw39jANK/8ZyCpkhUmc8DotnwyxXPLXB1chbsp6aGQpEJf2DIeHCymWTtykw81QiSvfmsomtmKIehrlcxkNO8u3cOXEnQ2PxActHz50MZV9O6x6oBFBiC5gfHgUiRNtGlboUvZY/vCOycDGGjbYYj78Pxb7oNwP48FPYLARsuSTfWYsGSSf8Grxwv1DNMz4ENLCTgw8bFjWm7kHGL2yeBIRKVZ/HKhbuNDo+E0YV0g0JD2Mt1Dh5sWxehfDSi0RvsI6Ei8nWu/5FurXwd5GFi7Mi8YiGu6KxLeJGi4WZlZYSj81XIq8hf9l82IuX+JmwCS2CbZTS8+Ip1Zemf4l5KH4m/0D9ynhQIz1SpLJBfeAmZ975nFPm6LXWTGvRvoerZ+3+h4LzyJv4f8U1oxbpu8J2xjxCykMS+l1mC78bdVtPbKX5cXqe3hKmlZHZfAM5ZLfFi6W7JJeu2r9ROrZb/WDWlmp+xovVjpL5610xbCw3vnyRKs/q/9M9YNhmWXLkzSxvkfCtCtf0nDpBscDnMBzY0ExrGhh1rjnS9gvJUVLEYFeMjGywrSxm8an5G+NMTl2ui5yOhHTamGp8jQZUumGw3OGL8q4LFc8uDkGo7fjfhi3X4ln3FC8KKLX7sX5805krOdqPVesZ1WKlyryWXyn+hem1bBmmFZ/DBOKjaUkLGx/fB5pY4ZG+hctT+EhNoaWsNgz1XoGSLrY1dKJWHztXoiZxYv1bCzTR2q4aM8Hixfr2Vi1bq08q/JCzDX5pD5iOiFhsTmCNe5JyW7xoul1Kk/hldewbVpz0TLjpTJ9QVh21PoxDm/auamM7EHA46zotSHEQT1dcr6L5Q0x4gSJG9zGqBjG/zwSmEsleJQRiRtocv1cGeKGttwzYw8YeOohS4b9wDsVm/sIrIVJFzejFbLCJE545SSNb5ePgUcJMTsaVyFu8jbw8cdbfTi4sNLxGGu6cg7L89w/55Mb99C4QMPYkXjIkvbB8hzKwJ2w2eHsjH0Z5MNd7LnZHI0AZephX5RDXHjeOZcYPQhvIb4NYPkk7vVxLvakIXFfF0uGWiTji5vNcQ+Uy+GVQ/dS2fvHkq+MDEaR0SALMyus1jECexI33f0h9ghivdDlzKq/KBPBTWmHPG+drpB0meNE38LFqiPJmpbouZjI0xBXlriM7fNod1zTSNoeHjx02bZwqRqWqlsNF0sWrs1nG6Cekr6HPoh1lGpHjJsqz+pfOMCnt9h6qMNwsM98eVT9VfA4kzbFezRi0zhKV0QSPZZIRYNZ7WbwZbU/q++RLGIyWLpr4Sl5xq6W7kr8WN9jtTErTPKseo3hYslelRerrQjvMV7K4Cnp673GypM8NL3W+olUm5Z8m3nVeJEyYjJYOm+lK1PvMTytercwq1qeyBDreyRMu3I5MIkDbG76/y5e8AhpYWX6Hskjdp2IlwtD8KyhB26RrDBt7KbxKXlrY0yOrbjP1tXBknVJY4WlytNkSKXjkcncfJITICHqLpdXc/N/LhHgyzfuryITDYlXz9V6rljPqhQvVeSz+LbaiqTTsNbqzxpLpdqfNmao2r9QBi1PhmljaIaRYs/UD0Lq/7Z0wsothZmWtmofyfwsXFLPB40f3o/15WXqtt48rfgSFuOFYSn5LJ2IzRGscU9KdosXTa+tPK22aelnaryk9QWCdezaymOFkehKw81gx2IJidA3nnmmNgH5LSbi3DCV9GBucFgaPEx5//+3dyZQVhVnHi9AI2rLYliayKasiogYkkwyZ5TEJaJEoqPGQY3EEDQyjhhDNCYGo9EQV1Agi/EkISSOSzwObsSIwRiXCQbsAZFmFRtENhEUROTg/P/33GqLy6269y1Nv4b/d87r+96t9ftVvdevvvfVV3fBGs6I7rWDBpnpyD8WsQGspKWNRN1T4I4/K47yzkWE/VXelku2Ye/b68f/zu2d9CsBZ+mwE/rMhGsrhXvOaFmz4ku7B/1ntGIr1J3biE5CkFieWHQzvDiG458eF3J5JVTuOzCGMDDXi/BYoGGKJynZoEY/xvgxwBtPjCHL32ObA13Hk0JdXMkaB+6jtlweAhcGUOXpPzSm0B2YwiCt3IbEXx8oIR2iDCl/aFSzLs+P4UQoK5yDNEyE9MvSwdZV7DXJzK3HTWOcDp7iMiHOwHFwTw0IjZ9bZ/L5CMyhP2JLEYWncjGYnxUfF3qVhMaI5XlE+t1xrBRbX9aVv3p1hyGFWz8oNEoMR9DlpLhcSkkLjW2IS7JN9/VVCNR7Hzyj+H6luIF7fTyZz9de1ufLlXhfXoqHlT/DgMgtfRNj9ja+i/21zeYbg/f7JMwn209+jnLrEqXcnz1ZOoTmboin1SXtGmLN/GmfPVxA+N5jWe+/tD5k3cvi4tO9XH1x30dZfcnimaVrMj2rvdC8Dn1OhN7TyT6U43WoLyEdQnPeV24mti/75mcWT1dXd9x538dsP3gilNKe77Mn9PlyEb5jsE1+9tNLkf/7rYTSbB7fdWciwf2mwu2q/H81A98NeIrb4Joaw+1FlFAaOdrvL+73urz9dPvAtvhj4H2OhyfvWQmlZbXn0yGrnG072c85MHjZX6Lp0Xoa2NlffkNjy/p84xD6Xhf6XxXqS7H6hfrpe69YVj7WvvE7CPPN910q9P+I7fm+MzCtmM8Xfmfw1Zn1HZptpv1P5f1iJTQnfHU2xP9GtuUb9ywuof8PPh2yPstDY1tsncWWy9IvNCd8awTf9x72MaR7qC++eR2qk7tLfO9NlgvNz9D3Jd9nAev0SbPq6urk5/AuefkLjnVJ3yWhAV5wf+b++HLgxn1ogGaCVXLhwjelG0PGFgil2TyhKz1y7BeAUL5kWqgct5b4eNGDhBa+QqWYcWBbnEj2H3ayzZAOybx5X4f0K0aHvO0Wko8WeQo/fNMkNH5p+XmPbtcf4kssrcVp4uOSNUZpdeW9VwmfE1lcQrpwnHxj5ONZSnu+vvBoeRorB8ydm5qFv9LWeeZSaoH4ZkO8/0JzN8Qz1E8f61CZ0HsslBaqs5Q0n+6N0ZdieJaie1ZZ3+dEY3xe+/oS0iE0533lGmrcfcyKbS/rs8enH+/75nxWWqjOcqbl+e4W0iHZFx7X+1v8sPVvMOrwByZXQmluvkLaK0c5t45yPQ/9Xyn2f1WxXEI6+d4raWXyjF/ouxT7T0n7PpH1naGYz5esOtN0bMh7oTnhazfEzFcmz/1Cxj1ZXzH/H5J1uK+LGVu3fLmfl1u/0Ps2S/e0vmTNa1+dofcmGYbmZ/L7Up7PgrRxyTSspBXam+/Zf8DPwTMiKaG0ZF69FgEREIFCCfAXRO6Rd4M1F1qH8ouACIhAoQT25s+ehvjuxu241ks4yTqUlsyr15VHQONXeWOiHolAYxAo5rOgRVVV1fWN0dlKbbMZ3EUZMT3tuOlQWqXqo36JgAg0HQI0qrgnhzWdnqunIiACTZnA3vzZ0xDf3bj1ySehNF8Z3a8cAhq/yhkL9UQEGpNAMZ8F8lhpzBFT2yIgAiIgAiIgAiIgAiIgAiIgAiIgAk2aQGrw2obQiHuVeFwohQG0ion9UUi/PodTjGhpKuSUk0LqV97yEzgLpwvxiKzGkD09P/PoyOPMefrSHJyCIBEBERABERABERABERABERABEahMArsdtzwRR7hOd04DYrd/iKNiX4hP7ClWja4IgnsMjsgbhxNk0o5SPgeL6kudo4iLbceWuwwnb3wNx89Jmg6Bn+JkIRoTsoTHanE+ct/0q8cdZ05yTmNiQKObMMd4/xfxaTVZ9TE9a37mqaPQPFlznscnXu450rzQthojf5Z+jdEntSkCIiACIiACIiACIiACIiAC5Sawm2GFRwT2wTGWrhzfurX5K+6XIvfj2OVrcOwyj+VLk34wunwGXi0SEcgiMBHHOy7Dcc6ff+WVKB4OjYFWHsTRuZxLPJ2ohb2Z45o1P3NUUXCWrDl/Y12duXr58oLrrZQCWfpVSj/VDxEQAREQAREQAREQAREQAREohcBuhhV7GsUJrVrV19sNHgJPbdwYvab3ypyBAyNvgeeOOcac2rZtfb7H+vUzn3WMI7P69zdHHXhgfXraE27BoPfBOe3amX+Jn/N1e0RctzK6UyfDts449FB7q6ArvSCeQV9Y/lR4N7Cfrozv3t2MzfAM+Hd41MxAOXpCPNC3r3kYC3j281gs4qlnv4QxivXn0Z/5vg39Xoo9MJ5GXT1jrw0+vw1eHDXgTebn5/TA4TFV03r3jvo6+9hjzQVOuWLGiH3M6guPamT/ngAjepL8MvYW6Q1d7D3yOsXxLuFc4biS6R3QM49wXvTCnPr5W2+Zt3HcMLeX7de8eTSuLH9hba356oIFZhEML2lSzFwK6cA2fOPne69kzXk7Xzln2V9XQn0h56s7d47mJefTuXhPZUnW3A3NJR6vdm+vXtH4cQx/3LVr1FyWfqE6s+ZnMfMsNHdDfclip3QREAEREAEREAEREAEREAERIIHdDCu8uRiL0hPiBfCQ2HDybHz88GYsZkcvWWKGzJ9vHscJFvQe4HFElMOx3ecQLHKtdMLrgxAjIiQv4gSer2Mx/DQ8Yl5Du3zOxzq0Y4VnkXfAIq6tY2yxaVlXGnYegBHkUcTuoNFoBtrhwnwQYrBYORML0DnvvWdfpl7Z9ifRj8uWLjUDUJb9/j/EvrioY0ezHScJuQYlVnA0DC3Uf4FngW8boTFiDIw6969bZ04H06lr1phWMbMuKH8CvIXGwmvhT/D4+RG2uOSRqX36RNwvXrzYTH7zTXMdynVE3ynFjBHLZfWFW3A3FZcaAAAYt0lEQVSuhdHtb5s2RcaN2eBDuRcGnh3gMwJj+g/cuxsGF2s0o0FrybZtZiT62TvFMBVVkPjDhTBlCbhegq1jPL1pCx6dwYqyFPWFpJi5FNIhNH6+90rWnK+FDnyPzcP86hob2axOob50A4OzMZevg2cY35vjYkPH92FsoeEj+XgIBsKsuRuaS/+J7XatMVfPgCHrnNdeMwu2bo26maVfqM6s+VnMPAvN3VBfLHNdRUAEREAEREAEREAEREAERCBE4GO3ECfXU1iUnRH/2s2F/ezYqMIsd61eHeWkp8rKDz6Inh8BQ8X6eCEd3SjwDxfXG2FIqcIijc+T8hSMIeuxteOfGcaPZDnGdDkTRpWpa9eaO2FgsFKDer4KD5SX4yu3J82EQWAg8v8r9E0KF8gULtqfRT7m59aot5F/MAxQNBgch+e/QR56iFyKRfGRYLIC+UN1sl8XduhgXgBf27+k/g/C4EL9+RgOI8yJ6B89NXz9pIGIC8lfw8OIi1AaHjaCHRfck+Oxi5RJ/MnqJ7On9YXcrPwFfRy/cmX0kky4SKZB7Fos9LnY5mMIvIYGQ4dnUO4wpF8Co8picLod5X4B7wdKqC8r4jnXBnPlv7CwH4ZF/W9gvGmT0+hW6FwK6fAgjHWh8Qu9V7LmPI2MnPOtHL2y+kJ20zCnOCZzYZS5AEa/XjDM/BbGuifwnk7KFszjEcjjm7s0DobmUnsY65o3a2a2o56l27fvYkT06ZdVZ7KPaa8LmWccI0ra3OV2sZB+aW3rngiIgAiIgAiIgAiIgAiIgAgkCaQaVug9MjreGsP4Kr90FuQTEM/iZBgTXsWv01zgU1picdWQ8jwMD3wUKowVQ2+G/glvCC6yvo9f83+4YoUZBgOLXXRWwwjwGceTxba3DguwhdD3Q3heWPkAi0k+DoDu/wuDwffgFcAgqlwI89oJdb2E+6E6WRfzhU7C4QLbSh2MCp9G/3jSka+f7CuFAV75oLyCRfameKyiGyl/svrJIml9cQ0rPO3JFXqHUKwnA5/TyMO2BsacaVSh1Dp6hvpCoxiFni80GHAB3xJeUu9k6BcVwp9C51JIB9YZGr9yv1ey+sL+zMdYU+x7szXmIxm3SHmPcv6G5i6NDhTfXKIxbDy2cD2N7Vwc158gJsxjKQacqJL4T1adbl7f80Lmma0jbe7aE8N8+tmyuoqACIiACIiACIiACIiACIhAiECqYYXbV2iQGIlfs7n9hQFtKYypQI+DodiywsUaY0F8EUaEZvGi7QMYHng8LKUL8qYJt4VwIZwUmiz463eaMK4EvWK4aFyJX8bzypNY5E1ctcrMQKyKb0CX32AhTuGv2D/BgpDeH19ALJmLFi6M7j8JLw8+0oQsdjqGFTcPt73QM2MY2ExGe0NhrPkEdLkNz0N1so4NMAgkDT9u3d3jxS3vcRG/CNxDddotThPQ9kLHWGHr9I1RqE5bNq0vNo3XTZgzrtjFPeOgbIgNIm0xn6gzDVUUzimOaVdnvoT6YrcRcbvUrdCRQmNW3nnBdrgVjN5Hr8feL1El8Z/k/AzpwCK+8ct6r7BsaM4zPSlZfUnmt68Z++Q8eEYlZTnmx4hFi7xz1xrpfHOJnxPcBsTtWTQs/gxbu1zDSpp+WXX65qfb90LmmS2XNnez+mLL6ioCIiACIiACIiACIiACIiACIQK7Wzji3NzyciW8VtZi0ZtctHJxfCgWs1ckAr7WwPAxFMYFykjP0cncfnNWvM0obiq6sOwAbKdJM8icj0UhY7mcCCNOIfIeFvrLsXi+EZ4p1yD+Bw00Vp6HfrfC+4YGpJfiRb9NK/T6Fn6t53ahU6A7t38cCMMR46vYOCOh+ugt8yXoZYO6Mhgut29YGQZWXKRz61JLGBOeQ79DQr7UiXFbOsUeI9zOZY+4zjNGvvoL7QuNb9vQl4thlKJcFgdi5TYhzil6OXwT84RzaYRnviT7wtg7jAFk5+R3oCe3Zs1wDGJcRFdhDA5Bve6CmnUxns4UbDk6EzzTJDk/QzqwfNb4+d4rLBua80xPSlZfkvnt63FvvGH6vPzybo9TX33VhOZu1lyy8ZfexFi+gnlHo4grafpl1VnM/MzDJW3uZvXF1UXPRUAEREAEREAEREAEREAERMBHINVjhZl5CtBpMBRwW5AVLmYZRPX3CI5K+Xu8yP8oXlBNg0fIHTBW8FSY+jRbOL7eBS+DG/HLNvNMR11jEX+D8gi8SL6C9mbgdBme8jK4psasxsLblV2XbW5K+Pk0bP35Mur+FRbUg+fNizI/hLYZp+Q+xKTII27b9GpwX7M8Y5sweCiFWxXIjjEcsoReLd1hSOHWFgqNBMNjDxq+ppfMTGy1oHALEz0ksmQkvBCmoL5ZOBmGQuPGKMR9oeQZoyhjyp+svth54BYds2yZmQSjGMebwvG3cWRuxVaSm+E5NByGMxpL8spVCCB8H2Ln2DrH4LWVKxF35VI8rPwZ3kpTEF9nYhxjx8Zisd4KNp+9ps3PkA6+8eNiP/ReYXu+OX8Pxu54x4hIPbkN7CTM3VBfWGfyMPPkPGWepITmbmguMXDzBIwt5+xWPH4KA44rPv1CdeaZn4XOM/bJN3dDfXF10XMREAEREAEREAEREAEREAER8BFoVl1dnWft5Sufep+nBK3PYQBILbwP36R3hbs9hQtqLvzceDaF4GFMjv2xJWkVDGJJKXSMSu0LPZHqUvrBftGzJmlES/Y37bXdRpSW5rvH43p5QtKAuXN9Wbz3QzqwUHL8vBWVISGrL2VoYpcqQnOpmHFg5aE6C52ftrNpXPLM3VBfbN26ioAIiIAIiIAIiIAIiIAIiEAaAa/HSlrmvPdkVMlLatd8rlHFTbGxNdx7eZ6vDXjMFDtGxfbFZ1ShHsUYVVjObgfi87zCk5omOSdE5S3HfCEdmO4bP6aVW7L6Uu72QnOpmHFg/0J1Fjs/Q1xCczfUl3KzVH0iIAIiIAIiIAIiIAIiIAJ7F4EWVVVV1+9dKu092jTDNiCeLMQjkxtbKqkvpbB4FDFt3BOISqlLZZsGgb1l7jYN2uqlCIiACIiACIiACIiACOx7BBpkK9C+h1Eai4AIiIAIiIAIiIAIiIAIiIAIiIAI7IsEvKcC7YswGlPns3BKTc3AgVFAVsYAkYiACIiACIiACIiACIiACIiACIiACFQ+gdQYK3OwwD8YR/u6cjxO6clzyo1bRs/zExiF44b/gtOEvrt8ef5CyikCIiACIiACIiACIiACIiACIiACItCoBFINK6fPn294LO0j/fqZH2ChzzgfMqo07Di1Au+5OLJZIgIiIAIiIAIiIAIiIAIiIAIiIAIi0HQIpBpWeEqLPamFp2W4p348AWPLs5s2mWHYusJ9RHesWmUeWL8+0jiU9ikct3tL9+5mYFWV2bpzp5mIctPWrasnxWNwf7dmjTm/QwfT48ADzSx4b1yyZEl9etqTUur0tde7ZUszoUePqA8boPv1K1aYp9AXK75yTB/dqZM5r317c+vKlWY6gqQWIjwWeQeC1UpEQAREQAREQAREQAREQAREQAREQASaDoGCY6x0O+AAc3a7dua61183j8N4MK5r13ptQ2lT+/QxB2F70cWLF5vJOO72um7djBtL5DAYXq7t0sX8DUabC2trzWx4yWRJKXX62ru3d+/IwDECffgH+nB3z56mPbxJrPjKMb0DYqN0gB5tnfy2XOhKYw49VuZv3RrKpjQREAEREAEREAEREAEREAEREAEREIEKI/CxxaCAjk1bu9bMhAFk7pYt5oKOHU0vGAYWb9sW1ZCWdkDz5qYLDDK/3rjR0DDB44M3whuEBprJq1fXt8wYI+Ph7UGhUSMkRx90UMl1Jts7HH2kYeRaGI1eRPt8DDn0UDO4dWvz4IYN9d1JlrMJ9GxZD73+WcCWnhcGDDCfhEHmtro686oMKxalriIgAiIgAiIgAiIgAiIgAiIgAiLQJAgUZViZD4MK5e0dO6Jra8dDIy2tfXzKTQ8YYPigvII6NsXloxv484yz5cbe811pqKGUUmeyPXqcUBY4Bg4agKphbHElWc6mPb95s+GjEBkFDx5uH/ouvHXuwVYoiQiIgAiIgAiIgAiIgAiIgAiIgAiIQNMhUJRhpVD11sE4QZmAuCoL33/fW3wTPFnySjnqTLZnDUWHw/izIfY6aQtjy4aEAShZzvaZW3qOQHwYGpfcuDQ2Pe3K7T8/RByXMxGz5gx4xxQamyWtTt0TAREQAREQAREQAREQAREQAREQARHYMwRSY6x0gYdGf2y1oXTCc26RKUVehpFiC4wmYw47zHSKvUJOwPaavjBCFCsNUSe3M21DPy/G9ibKZQhGS8nalhRlwh8G3p2IwLcntmljb+W+0lhTlTjiOndhZRQBERABERABERABERABERABERABEWgUAqkeK/+Dk38Ojhf5N+AkH8rxNTX1Ry7vjO58/Mc9y8aXNnLRIjMFgWBnIaYIhQaMUYlTfz4q8FScUutMa2/MsmVmEowjtYMGRf28C142S+L4MdEN/EkrZ9N4dXm490PP3wOPvrExK5RPaSIgAiIgAiIgAiIgAiIgAiIgAiIgApVDoFl1dXUxdoCiNWAcEx4tvGr79qLrSBZsiDrptVNXxj4m+5x8/Q14yVyDOCs0OJ00b55Zl9h+lMyv1yIgAiIgAiIgAiIgAiIgAiIgAiIgAo1PYI8bVhpf5cruQWcYdPLGZ6lsTdQ7ERABERABERABERABERABERABEdj7CaTGWNn71a5cDWVUqdyxUc9EQAREQAREQAREQAREQAREQAREIElAhpUkEb0WAREQAREQAREQAREQAREQAREQAREQgZwEKsKwciJOCLInD33+kEPMkSWcFuTT+ywcZ5xHGqIvDVFnSJehOLa5/X6pcYnri/XB0dDHHXxw/eu0JyFmobS0uvb0vTz6NXSfOJeHt28fParj07Bsm6G0PT1fbJ90FQEREAEREAEREAEREAEREAERKJxARRhWpvTqZYbFho/bjzjCjIqPOS5cHX+Jnx5+uOFiO0saoi+hOqf17h2dQMRTiOxjfHwSU1Zffek/Q/mjMk4YOhcL/stx/HVIQsxCaaE6bRoNP1ZfXqcfdZS5AH3KI3mY5dEvT1ul5OmKY8qPgfFqXLduux0tHkoLzZdS+qOyIiACIiACIiACIiACIiACIiAC5ScQdmsof3uqMUGgOU5Ien7TJvOjFSvqU/ZEnJUb6+oMT1NqbLli6VLz6pYt5stt25rrYICYBRZZ+udhVgn63b9+veHjK/AgSkooLZlXr0VABERABERABERABERABERABCqXQJMwrHwbHiwXdehg2sIQUPfBB+bSxYvNkm3bTG94oEzo0cP0wNahDR9+aK6HceKpd96JaH8W2zBuh5fKofCM+PPGjbuMwKdw8s4t8OoYWFVltu7caSauWmWmrVu3Sx7fi9Hoy3nwrLh15Uoz/e23fdkKuv8ujlhOMyaE9GMDTx19tPndmjXmfLAhg1nQ/ZIlS6K2/wP37gSbFnh1J/T77dq10X167fwcHkKU52DEGPfGG9Fz/gkxC6WFeD7Rr595Fu3QI4nuUXegLw/A2GCF48ZjrX8NPcbiuGmOSS/w+EHXrtGx0zbf1Z07m3YYy7Gvvx7d8jEL6ceCPmY+HWb1729G0/izdWvUrv3D+5eB9Vnt2kWPg1u0MGuhx00wWM1IzDdbRlcREAEREAEREAEREAEREAEREIG9j0BFbAW6AQaRp2ODyC0wWNwfGwGI+3wYMcZgy8r9MHycPn++mYoFeCssYin3YhvNjo8+MiNqa80/3n3X3N2zZ31sEW6nofFlJIwwvRPbYqb26WMOQh0XI23ym29GnhIdY++NUF/YJr08OsAw0zYjhgnzWsmq8wutWplfoe/20RX1U0L6Mf0w5LsWxoi/wXBxIRjMBgMrNIRcs3y5+SO4fR9GCiu1YDIaBoF58BLpmtgaFWIWSgvx7IbtMGfD+HAdDCKPwxA1zukL+3QVDCb3QPeagQPNC5s3m0eR56/QpxM4n9qmje22+ToMRRxjKz5mIf1Y1sfMp8N2zC+ydOVozKdO0GvB+++bzTt2RDyHYG5Sv4kwZtEAVIpkzZdS6lZZERABERABERABERABERABERCB8hKoCMPKH7D4nx97BDyyYYN56b336rW8EAtqLrjvhAGEhpKpMLrMgVGAwW5p4KDnyItYcI9ZtiwqMxiBcD+Jhe1hSL8Z3hhMux15rHBR3AVpvM9F9mZ4R2yE1wQX/5RQX5hOj5hJ8Lr4p9NH3g9JVp30vlgM3eyDi/mQfm5bf0F/xkM/Gh3o9WHlQTBlX3+GtB3wyhmCrTZWXoNBYD10diXELJSWxZNtTMOYzYSxZPLq1Wa/5s1NL8eg8xa8PN6AF9Ia9IdGmC6xUYl6nd+xY9TFU+O+P4i5YSWNmU1L08+m8ZpkFtKBXG2Q39nHHms+DY+aYxE3ZQXGi3IXdOJc6g2PoZXQg3JEicGXs+ZL1Ij+iIAIiIAIiIAIiIAIiIAIiIAIVASB0n5a3wMqdMJC+2FnQW2btPFBFjhbNGggqUZ+bieh0FBBqYUhwQqNKpQeWNzzQXkFhppN8DzII8/DyMNHOYXeIzQQufK5WIc0/dx8z8AAkSYLHZ2XY8E/CPU9GdiiEmIWSsvDcz70o7wdM24Nw9c78fM/wOgym0YqbKGh4YIGLhrRaIz5Q9++0Vaur8FricYQV9KYuemh50lmIR1o9PkevGpOgvdMK/SbV87Jl2BMoUxAsOWTcY9bhax+LRE3RyICIiACIiACIiACIiACIiACIrBvEKh4w8oGLMD7J7bycGjsIvZwGEc2xN4jjMHC/AtjY0tnLIAZu8RurWG5dbGnxgR4nbjGB6blEcY9oUcCjQVpcVHy1JEnT0g/t/wmeLukCb0/rDB+SDJGiE2z1xCzUFqpPG37vC6HIezo+AjolzGmjL9yMbxWuO3ngoUL3awlPU8yC+nAY5LpGTUMAWgnY84MRayYT8Bwchuec34Nwf2h2AZEIx7ju3wRRpZmCcMKt6u1hKdOmoTS0vLrngiIgAiIgAiIgAiIgAiIgAiIQGURSF/tVVAfn0Dcii9hsXoKHhRuw+BWEi5kt8GowIU35bL4iGZu3aDBg94r36yujjweRuBqhQv2LSjHuC2M40E5AduH+ubcvsFAsYyjcWLcH1tvua8h/fK0dQYMAFz4D8XCn4FV/57hZRNiFkorlSc9j3piPM+Fp8oAeNU87AS2pdfKtzCuHMvIqyWP4kXkCenwFtpmHJVTwJHbfg6EgYTxVdx4NjToMUjyFZ7jq1k/g9ymSSgtLb/uiYAIiIAIiIAIiIAIiIAIiIAIVBaBivdYoWdAdyy8GZiWwnghw2PvBcZVmQQjR+2gQVHaXcjLOCwUbq25GacCDYchZLGzLYZpIxctMlNQ36wBA/gyMtCMik/TiW7k+PNRjjx5suyEN4NPQvrZMh95ym8Hp5nHHBNlewjxVtbCQEBhoNjjHaMQ2fGkpZPmzQsyK4Xnzqjlj/+4Gt+B8aMsxRjdC8PF4852JcaJobHiv3F1JcQspJ+tI41ZaE7MgWHEegBxG9FpMLIwJgzlTzAE/R7BkCl/RxwZSrJ+zssbEUyZrKcjvz3ZiHlDaUyXiIAIiIAIiIAIiIAIiIAIiIAIVDaBZtXV1e46t6J72x2eAq/HAULdjjLgKY/sTRN6payOF8HJdHpL7I9tG6s8ZZP5G+t1SL+G6FOIWSit3Dx5Gg+NFoNrarxjWG79y61Dufun+kRABERABERABERABERABERABCqLQJMyrFQWOvWmIQnc0K1btI3pOXiBXBGf+NSQ7aluERABERABERABERABERABERABESiGQMVvBSpGKZVp+gR4atB4nBT0gBNzpelrJQ1EQAREQAREQAREQAREQAREQAT2NgLyWNnbRlT6iIAIiIAIiIAIiIAIiIAIiIAIiIAI7DECqacCPXTkkVGgTQaGlYiACIiACIiACIiACIiACIiACIiACIiACKQTSDWsnP3aa2YUTs45uW3b+iOJ04vrrgiIgAiIgAiIgAiIgAiIgAiIgAiIgAjsuwRSDSvE8ezmzRGV1vspDMu+Oz2kuQiIgAiIgAiIgAiIgAiIgAiIgAiIQIiA17BiC/E4YokIiIAIiIAIiIAIiIAIiIAIiIAIiIAIiMDuBIKGlY0ffhhtB9q9mO6IgAiIgAiIgAiIgAiIgAiIgAiIgAiIgAgEDSuXL11qzm7XzswZONCc0qaNaImACIiACIiACIiACIiACIiACIiACIiACDgEggFUxnbubN7ZscPcVFdnno9jrjhl9VQEREAEREAEREAEREAEREAEREAEREAE9mkCQcPKgKoq8y2cDiSjyj49R6S8CIiACIiACIiACIiACIiACIiACIiAh8D/A1MEltzVx6XuAAAAAElFTkSuQmCC;fillColor=#21C0A5;strokeColor=#006658;fontColor=#5C5C5C;" vertex="1" parent="1">
          <mxGeometry x="30" y="610" width="1110" height="165" as="geometry" />
        </mxCell>
        <mxCell id="XaQK2IAKRGdh097yGWWp-2106" value="" style="edgeStyle=orthogonalEdgeStyle;rounded=0;orthogonalLoop=1;jettySize=auto;html=1;strokeColor=#006658;fontColor=default;labelBackgroundColor=none;" edge="1" parent="1" source="XaQK2IAKRGdh097yGWWp-2100" target="XaQK2IAKRGdh097yGWWp-2096">
          <mxGeometry relative="1" as="geometry" />
        </mxCell>
        <mxCell id="XaQK2IAKRGdh097yGWWp-2100" value="WAF Policy" style="image;aspect=fixed;html=1;points=[];align=center;fontSize=12;image=img/lib/azure2/networking/Web_Application_Firewall_Policies_WAF.svg;strokeColor=#006658;fontColor=#5C5C5C;fillColor=#21C0A5;labelBackgroundColor=none;" vertex="1" parent="1">
          <mxGeometry x="260" y="436" width="68" height="68" as="geometry" />
        </mxCell>
        <mxCell id="XaQK2IAKRGdh097yGWWp-2113" style="edgeStyle=orthogonalEdgeStyle;rounded=0;orthogonalLoop=1;jettySize=auto;html=1;strokeColor=#006658;fontColor=default;labelBackgroundColor=none;" edge="1" parent="1" source="XaQK2IAKRGdh097yGWWp-2107" target="XaQK2IAKRGdh097yGWWp-2092">
          <mxGeometry relative="1" as="geometry" />
        </mxCell>
        <mxCell id="XaQK2IAKRGdh097yGWWp-2107" value="&lt;div style=&quot;text-align: start; background-color: rgb(31, 31, 31); font-family: Menlo, Monaco, &amp;quot;Courier New&amp;quot;, monospace; line-height: 18px; white-space: pre; color: rgb(204, 204, 204);&quot;&gt;&lt;font color=&quot;#ce9178&quot;&gt;&lt;span style=&quot;caret-color: rgb(206, 145, 120);&quot;&gt;Central Action&lt;/span&gt;&lt;/font&gt;&lt;/div&gt;" style="dashed=0;outlineConnect=0;html=1;align=center;labelPosition=center;verticalLabelPosition=bottom;verticalAlign=top;shape=mxgraph.weblogos.github;strokeColor=#006658;fontColor=#5C5C5C;fillColor=#21C0A5;labelBackgroundColor=none;" vertex="1" parent="1">
          <mxGeometry x="643.5" y="129" width="75" height="75" as="geometry" />
        </mxCell>
        <mxCell id="XaQK2IAKRGdh097yGWWp-2112" style="edgeStyle=orthogonalEdgeStyle;rounded=0;orthogonalLoop=1;jettySize=auto;html=1;strokeColor=#006658;fontColor=default;labelBackgroundColor=none;" edge="1" parent="1" source="XaQK2IAKRGdh097yGWWp-2108" target="XaQK2IAKRGdh097yGWWp-2107">
          <mxGeometry relative="1" as="geometry" />
        </mxCell>
        <mxCell id="XaQK2IAKRGdh097yGWWp-2108" value="&lt;div style=&quot;text-align: start; color: rgb(204, 204, 204); background-color: rgb(31, 31, 31); font-family: Menlo, Monaco, &amp;quot;Courier New&amp;quot;, monospace; line-height: 18px; white-space: pre;&quot;&gt;&lt;span style=&quot;color: rgb(206, 145, 120);&quot;&gt;&lt;i&gt;&lt;font style=&quot;font-size: 17px;&quot;&gt;Centralized Pipelines&lt;/font&gt;&lt;/i&gt;&lt;/span&gt;&lt;/div&gt;" style="dashed=0;outlineConnect=0;html=1;align=center;labelPosition=center;verticalLabelPosition=bottom;verticalAlign=top;shape=mxgraph.weblogos.github;strokeColor=#006658;fontColor=#5C5C5C;fillColor=#21C0A5;labelBackgroundColor=none;" vertex="1" parent="1">
          <mxGeometry x="387.5" y="-70" width="160" height="160" as="geometry" />
        </mxCell>
        <mxCell id="XaQK2IAKRGdh097yGWWp-2118" value="" style="edgeStyle=orthogonalEdgeStyle;rounded=0;orthogonalLoop=1;jettySize=auto;html=1;strokeColor=#006658;fontColor=default;labelBackgroundColor=none;" edge="1" parent="1" source="XaQK2IAKRGdh097yGWWp-2114" target="XaQK2IAKRGdh097yGWWp-2117">
          <mxGeometry relative="1" as="geometry" />
        </mxCell>
        <mxCell id="XaQK2IAKRGdh097yGWWp-2114" value="&lt;div style=&quot;text-align: start; background-color: rgb(31, 31, 31); font-family: Menlo, Monaco, &amp;quot;Courier New&amp;quot;, monospace; line-height: 18px; white-space: pre; color: rgb(204, 204, 204);&quot;&gt;&lt;font color=&quot;#ce9178&quot;&gt;&lt;span style=&quot;caret-color: rgb(206, 145, 120);&quot;&gt;GitHub Token&lt;/span&gt;&lt;/font&gt;&lt;/div&gt;" style="dashed=0;outlineConnect=0;html=1;align=center;labelPosition=center;verticalLabelPosition=bottom;verticalAlign=top;shape=mxgraph.weblogos.github;strokeColor=#006658;fontColor=#5C5C5C;fillColor=#21C0A5;labelBackgroundColor=none;" vertex="1" parent="1">
          <mxGeometry x="643.5" y="432.5" width="75" height="75" as="geometry" />
        </mxCell>
        <mxCell id="XaQK2IAKRGdh097yGWWp-2121" style="edgeStyle=orthogonalEdgeStyle;rounded=0;orthogonalLoop=1;jettySize=auto;html=1;strokeColor=#006658;fontColor=default;labelBackgroundColor=none;" edge="1" parent="1" source="XaQK2IAKRGdh097yGWWp-2117">
          <mxGeometry relative="1" as="geometry">
            <mxPoint x="850.4200000000001" y="370" as="targetPoint" />
          </mxGeometry>
        </mxCell>
        <mxCell id="XaQK2IAKRGdh097yGWWp-2117" value="GH CLI&#xa;" style="shape=image;verticalLabelPosition=bottom;labelBackgroundColor=none;verticalAlign=top;aspect=fixed;imageAspect=0;image=data:image/svg+xml,PHN2ZyB4bWxuczpjYz0iaHR0cDovL2NyZWF0aXZlY29tbW9ucy5vcmcvbnMjIiB4bWxuczpkYz0iaHR0cDovL3B1cmwub3JnL2RjL2VsZW1lbnRzLzEuMS8iIHhtbG5zOmlua3NjYXBlPSJodHRwOi8vd3d3Lmlua3NjYXBlLm9yZy9uYW1lc3BhY2VzL2lua3NjYXBlIiB4bWxuczpyZGY9Imh0dHA6Ly93d3cudzMub3JnLzE5OTkvMDIvMjItcmRmLXN5bnRheC1ucyMiIHhtbG5zOnNvZGlwb2RpPSJodHRwOi8vc29kaXBvZGkuc291cmNlZm9yZ2UubmV0L0RURC9zb2RpcG9kaS0wLmR0ZCIgeG1sbnM6c3ZnPSJodHRwOi8vd3d3LnczLm9yZy8yMDAwL3N2ZyIgeG1sbnM9Imh0dHA6Ly93d3cudzMub3JnLzIwMDAvc3ZnIiB4bWxuczp4bGluaz0iaHR0cDovL3d3dy53My5vcmcvMTk5OS94bGluayIgdmVyc2lvbj0iMS4xIiBpZD0ic3ZnNjE2NDUiIGlua3NjYXBlOnZlcnNpb249IjAuOTIuMyAoMjQwNTU0NiwgMjAxOC0wMy0xMSkiIHNvZGlwb2RpOmRvY25hbWU9ImNsaV9nZW5lcmljLnN2ZyIgeD0iMHB4IiB5PSIwcHgiIHZpZXdCb3g9IjAgMCA0OCAzNy41IiBzdHlsZT0iZW5hYmxlLWJhY2tncm91bmQ6bmV3IDAgMCA0OCAzNy41OyIgeG1sOnNwYWNlPSJwcmVzZXJ2ZSI+JiN4YTs8c29kaXBvZGk6bmFtZWR2aWV3IGJvcmRlcmNvbG9yPSIjNjY2NjY2IiBib3JkZXJvcGFjaXR5PSIxIiBmaXQtbWFyZ2luLWJvdHRvbT0iMCIgZml0LW1hcmdpbi1sZWZ0PSIwIiBmaXQtbWFyZ2luLXJpZ2h0PSIwIiBmaXQtbWFyZ2luLXRvcD0iMCIgZ3JpZHRvbGVyYW5jZT0iMTAiIGd1aWRldG9sZXJhbmNlPSIxMCIgaWQ9Im5hbWVkdmlldzYxNjQ3IiBpbmtzY2FwZTpjdXJyZW50LWxheWVyPSJzdmc2MTY0NSIgaW5rc2NhcGU6Y3g9IjMyIiBpbmtzY2FwZTpjeT0iMjUiIGlua3NjYXBlOnBhZ2VvcGFjaXR5PSIwIiBpbmtzY2FwZTpwYWdlc2hhZG93PSIyIiBpbmtzY2FwZTp3aW5kb3ctaGVpZ2h0PSIxMDE3IiBpbmtzY2FwZTp3aW5kb3ctbWF4aW1pemVkPSIxIiBpbmtzY2FwZTp3aW5kb3ctd2lkdGg9IjE5MjAiIGlua3NjYXBlOndpbmRvdy14PSItOCIgaW5rc2NhcGU6d2luZG93LXk9Ii04IiBpbmtzY2FwZTp6b29tPSIxNi42NzMwNjciIG9iamVjdHRvbGVyYW5jZT0iMTAiIHBhZ2Vjb2xvcj0iI2ZmZmZmZiIgc2hvd2dyaWQ9ImZhbHNlIj4mI3hhOwk8L3NvZGlwb2RpOm5hbWVkdmlldz4mI3hhOzxnIGlkPSJnNjE2NDMiIHRyYW5zZm9ybT0idHJhbnNsYXRlKC0wLjc1LC0wLjc0OTk4OTk5KSI+JiN4YTsJPHRpdGxlIGlkPSJ0aXRsZTYxNTkwIj5QYWdlLTE8L3RpdGxlPiYjeGE7CTxnIGlkPSJncm91cDUxNTEtMSIgdHJhbnNmb3JtPSJ0cmFuc2xhdGUoMS41LC0xLjUpIj4mI3hhOwkJPHRpdGxlIGlkPSJ0aXRsZTYxNTkyIj5DTEkgR2VuZXJpYzwvdGl0bGU+JiN4YTsJCTxnIGlkPSJzaGFwZTUxNTItMiI+JiN4YTsJCQk8dGl0bGUgaWQ9InRpdGxlNjE1OTQiPnBhdGgxNTE5NTwvdGl0bGU+JiN4YTsJCQk8cGF0aCBpZD0icGF0aDYxNTk2IiBpbmtzY2FwZTpjb25uZWN0b3ItY3VydmF0dXJlPSIwIiBzdHlsZT0iZmlsbDojRkZGRkZGOyIgZD0iTTQ2LjUsNS44OFYzOUgwVjUuODhDMC4wMSw0LjI4LDEuMzEsMywyLjkxLDMgICAgIEg0My42QzQ1LjE5LDMsNDYuNDksNC4yOSw0Ni41LDUuODh6Ii8+JiN4YTsJCTwvZz4mI3hhOwkJPGcgaWQ9InNoYXBlNTE1My00Ij4mI3hhOwkJCTx0aXRsZSBpZD0idGl0bGU2MTU5OSI+cGF0aDE1MTk3PC90aXRsZT4mI3hhOwkJCSYjeGE7CQkJCTxwYXRoIGlkPSJwYXRoNjE2MDEiIGlua3NjYXBlOmNvbm5lY3Rvci1jdXJ2YXR1cmU9IjAiIHN0eWxlPSJmaWxsOm5vbmU7c3Ryb2tlOiM1NTZBOEE7c3Ryb2tlLXdpZHRoOjEuNTtzdHJva2UtbWl0ZXJsaW1pdDozOyIgZD0iICAgICBNNDYuNSw1Ljg4VjM5SDBWNS44OEMwLjAxLDQuMjgsMS4zMSwzLDIuOTEsM0g0My42QzQ1LjE5LDMsNDYuNDksNC4yOSw0Ni41LDUuODh6Ii8+JiN4YTsJCTwvZz4mI3hhOwkJPGcgaWQ9InNoYXBlNTE1NC02IiB0cmFuc2Zvcm09InRyYW5zbGF0ZSgyLjYyNSwtMzEuODc1KSI+JiN4YTsJCQk8dGl0bGUgaWQ9InRpdGxlNjE2MDQiPmNpcmNsZTE1MTk5PC90aXRsZT4mI3hhOwkJCTxjaXJjbGUgaWQ9ImVsbGlwc2U2MTYwNiIgc3R5bGU9ImZpbGw6IzJCQzdGNDsiIGN4PSIxLjEzIiBjeT0iMzcuODgiIHI9IjEuMTMiLz4mI3hhOwkJPC9nPiYjeGE7CQk8ZyBpZD0ic2hhcGU1MTU1LTgiIHRyYW5zZm9ybT0idHJhbnNsYXRlKDYuMzc1LC0zMS44NzUpIj4mI3hhOwkJCTx0aXRsZSBpZD0idGl0bGU2MTYwOSI+Y2lyY2xlMTUyMDE8L3RpdGxlPiYjeGE7CQkJPGNpcmNsZSBpZD0iZWxsaXBzZTYxNjExIiBzdHlsZT0iZmlsbDojMkJDN0Y0OyIgY3g9IjEuMTMiIGN5PSIzNy44OCIgcj0iMS4xMyIvPiYjeGE7CQk8L2c+JiN4YTsJCTxnIGlkPSJzaGFwZTUxNTYtMTAiIHRyYW5zZm9ybT0idHJhbnNsYXRlKDEwLjEyNSwtMzEuODc1KSI+JiN4YTsJCQk8dGl0bGUgaWQ9InRpdGxlNjE2MTQiPmNpcmNsZTE1MjAzPC90aXRsZT4mI3hhOwkJCTxjaXJjbGUgaWQ9ImVsbGlwc2U2MTYxNiIgc3R5bGU9ImZpbGw6IzJCQzdGNDsiIGN4PSIxLjEzIiBjeT0iMzcuODgiIHI9IjEuMTMiLz4mI3hhOwkJPC9nPiYjeGE7CQk8ZyBpZD0ic2hhcGU1MTU3LTEyIiB0cmFuc2Zvcm09InRyYW5zbGF0ZSgyMi41LC02KSI+JiN4YTsJCQk8dGl0bGUgaWQ9InRpdGxlNjE2MTkiPnBvbHlnb24xNTIwNTwvdGl0bGU+JiN4YTsJCQk8cGF0aCBpZD0icGF0aDYxNjIxIiBpbmtzY2FwZTpjb25uZWN0b3ItY3VydmF0dXJlPSIwIiBzdHlsZT0iZmlsbDojRTVFNUU1OyIgZD0iTTAsMTUuNzVoMjMuMjVWMzlMMCwxNS43NXoiLz4mI3hhOwkJPC9nPiYjeGE7CQk8ZyBpZD0ic2hhcGU1MTU4LTE0IiB0cmFuc2Zvcm09InRyYW5zbGF0ZSgwLjc1LC0yOS4yNSkiPiYjeGE7CQkJPHRpdGxlIGlkPSJ0aXRsZTYxNjI0Ij5saW5lMTUyMDc8L3RpdGxlPiYjeGE7CQkJJiN4YTsJCQkJPHBhdGggaWQ9InBhdGg2MTYyNiIgaW5rc2NhcGU6Y29ubmVjdG9yLWN1cnZhdHVyZT0iMCIgc3R5bGU9ImZpbGw6bm9uZTtzdHJva2U6IzU1NkE4QTtzdHJva2Utd2lkdGg6MS41O3N0cm9rZS1taXRlcmxpbWl0OjM7IiBkPSIgICAgIE0wLDM5aDQ1Ii8+JiN4YTsJCTwvZz4mI3hhOwkJPGcgaWQ9Imdyb3VwNTE1OS0xNyIgdHJhbnNmb3JtPSJ0cmFuc2xhdGUoMy43NSwtMTYuOTcyNSkiPiYjeGE7CQkJPHRpdGxlIGlkPSJ0aXRsZTYxNjI5Ij5nMTUyMTM8L3RpdGxlPiYjeGE7CQkJPGcgaWQ9InNoYXBlNTE2MC0xOCI+JiN4YTsJCQkJPHRpdGxlIGlkPSJ0aXRsZTYxNjMxIj5wYXRoMTUyMDk8L3RpdGxlPiYjeGE7CQkJCTxwYXRoIGlkPSJwYXRoNjE2MzMiIGlua3NjYXBlOmNvbm5lY3Rvci1jdXJ2YXR1cmU9IjAiIHN0eWxlPSJmaWxsOiM1NTZBOEE7IiBkPSJNMi43NCwzNy44MVYzOUgyLjA2di0xLjE1ICAgICAgYy0wLjY5LDAuMDMtMS4zOC0wLjEzLTEuOTgtMC40N3YtMS4yM2MwLjI3LDAuMjIsMC41OCwwLjM5LDAuOTEsMC40OWMwLjM0LDAuMTIsMC43MSwwLjE5LDEuMDcsMC4xOVYzNC40ICAgICAgYy0wLjY0LTAuMjQtMS4yMS0wLjYyLTEuNjgtMS4xMWMtMC4yNi0wLjM1LTAuMzktMC43Ny0wLjM4LTEuMmMtMC4wMS0wLjUzLDAuMi0xLjA0LDAuNTgtMS40MWMwLjQtMC40MiwwLjkzLTAuNjgsMS41LTAuNzUgICAgICB2LTAuOTZoMC42OHYwLjk3YzAuNTUtMC4wMiwxLjA5LDAuMDgsMS41OSwwLjMxdjEuMThjLTAuNDctMC4zMi0xLjAyLTAuNDgtMS41OS0wLjQ4djIuNTJjMC42MiwwLjI1LDEuMTgsMC42MiwxLjY1LDEuMDkgICAgICBjMC42MywwLjc1LDAuNTgsMS44NS0wLjExLDIuNTRDMy44NywzNy41LDMuMzIsMzcuNzUsMi43NCwzNy44MXogTTIuMDYsMzMuMTd2LTIuMTljLTAuMjUsMC4wNC0wLjQ4LDAuMTYtMC42NSwwLjM1ICAgICAgYy0wLjE2LDAuMTgtMC4yNSwwLjQxLTAuMjQsMC42NWMtMC4wMSwwLjI0LDAuMDUsMC40NywwLjE5LDAuNjdDMS41NSwzMi44NywxLjc5LDMzLjA1LDIuMDYsMzMuMTd6IE0yLjc0LDM0LjY3djIuMTIgICAgICBjMC42Mi0wLjEzLDAuOTMtMC40NiwwLjkzLTAuOThjMC0wLjQyLTAuMzEtMC43OS0wLjkzLTEuMTFWMzQuNjd6Ii8+JiN4YTsJCQk8L2c+JiN4YTsJCQk8ZyBpZD0ic2hhcGU1MTYxLTIwIiB0cmFuc2Zvcm09InRyYW5zbGF0ZSg1LjQ1MjUsLTAuMjc3NSkiPiYjeGE7CQkJCTx0aXRsZSBpZD0idGl0bGU2MTYzNiI+cGF0aDE1MjExPC90aXRsZT4mI3hhOwkJCQk8cmVjdCBpZD0icmVjdDYxNjM4IiB4PSIwIiB5PSIzOC4zNSIgc3R5bGU9ImZpbGw6IzU1NkE4QTsiIHdpZHRoPSI0LjY3IiBoZWlnaHQ9IjAuNjUiLz4mI3hhOwkJCTwvZz4mI3hhOwkJPC9nPiYjeGE7CTwvZz4mI3hhOzwvZz4mI3hhOzwvc3ZnPg==;strokeColor=#006658;fontColor=#5C5C5C;fillColor=#21C0A5;" vertex="1" parent="1">
          <mxGeometry x="810" y="438" width="80.84" height="64" as="geometry" />
        </mxCell>
        <mxCell id="XaQK2IAKRGdh097yGWWp-2127" value="Non Prod" style="whiteSpace=wrap;html=1;strokeColor=#006658;fontColor=#5C5C5C;fillColor=#21C0A5;" vertex="1" parent="1">
          <mxGeometry x="980" y="300" width="120" height="60" as="geometry" />
        </mxCell>
        <mxCell id="XaQK2IAKRGdh097yGWWp-2128" value="Production" style="whiteSpace=wrap;html=1;strokeColor=#006658;fontColor=#5C5C5C;fillColor=#21C0A5;" vertex="1" parent="1">
          <mxGeometry x="980" y="180" width="120" height="60" as="geometry" />
        </mxCell>
        <mxCell id="XaQK2IAKRGdh097yGWWp-2132" style="edgeStyle=orthogonalEdgeStyle;rounded=0;orthogonalLoop=1;jettySize=auto;html=1;strokeColor=#006658;fontColor=#5C5C5C;fillColor=#21C0A5;" edge="1" parent="1" source="XaQK2IAKRGdh097yGWWp-2130" target="XaQK2IAKRGdh097yGWWp-2128">
          <mxGeometry relative="1" as="geometry">
            <Array as="points">
              <mxPoint x="850" y="210" />
            </Array>
          </mxGeometry>
        </mxCell>
        <mxCell id="XaQK2IAKRGdh097yGWWp-2134" value="" style="edgeStyle=orthogonalEdgeStyle;rounded=0;orthogonalLoop=1;jettySize=auto;html=1;strokeColor=#006658;fontColor=#5C5C5C;fillColor=#21C0A5;" edge="1" parent="1" source="XaQK2IAKRGdh097yGWWp-2130" target="XaQK2IAKRGdh097yGWWp-2127">
          <mxGeometry relative="1" as="geometry" />
        </mxCell>
        <mxCell id="XaQK2IAKRGdh097yGWWp-2130" value="Environment" style="rhombus;whiteSpace=wrap;html=1;strokeColor=#006658;fontColor=#5C5C5C;fillColor=#21C0A5;" vertex="1" parent="1">
          <mxGeometry x="810" y="290" width="80" height="80" as="geometry" />
        </mxCell>
      </root>
    </mxGraphModel>
  </diagram>
</mxfile>
